<?xml version="1.0" encoding="UTF-8"?>
<svg width="400px" height="300px" viewBox="0 0 400 300" version="1.1" xmlns="http://www.w3.org/2000/svg" xmlns:xlink="http://www.w3.org/1999/xlink">
    <!-- Generator: Sketch 57.1 (83088) - https://sketch.com -->
    <title>Artboard Copy 3</title>
    <desc>Created with Sketch.</desc>
    <g id="Artboard-Copy-3" stroke="none" stroke-width="1" fill="none" fill-rule="evenodd">
        <g id="eytys" transform="translate(116.000000, 81.000000)" fill="#000000" fill-rule="nonzero">
            <path d="M19.1008114,110.906849 L18.6616728,111.639894 C18.5901,110.489082 18.5901,109.334924 18.6616728,108.184112 C18.6616728,107.639565 18.6616728,98.8220856 18.5362047,98.2147058 C18.6606867,96.0732362 18.6606867,93.9263271 18.5362047,91.7848576 C18.3898251,90.0674388 18.5362047,88.978344 18.3689138,87.2609252 L18.3689138,79.5953733 L18.6198501,79.3649878 C18.6198501,76.0977034 18.2225342,72.9560837 18.1179774,69.8144641 L18.1179774,69.6259669 C17.8836758,69.0015521 17.7086408,68.356414 17.5951934,67.6991069 L17.4906366,67.6991069 C17.0933207,65.7931909 16.7378275,58.2533037 16.5496253,55.1326282 C16.131398,52.4936677 16.0895753,50.3783105 15.901373,48.2420091 C15.901373,47.7812382 15.901373,47.2995232 15.7759049,45.8753223 L16.2150435,45.665881 L16.2150435,45.184166 C16.4450685,42.3567083 16.2150435,39.1732004 16.2150435,35.9478042 C16.0552132,35.4472713 15.9294565,34.936459 15.838639,34.4188826 L15.2740322,34 L9.52340762,35.759307 C9.35611672,35.8849718 7.62047367,36.4714075 7.43227141,36.5970722 C6.98543086,36.8877944 6.4996145,37.1134536 5.98938743,37.2672844 C5.91266529,37.7604317 5.78656109,38.2445886 5.61298291,38.7124295 C4.78379826,40.8037558 4.13321417,42.9617547 3.66822624,45.1632218 C3.66822624,45.4983279 3.56366943,45.7287134 3.52184671,45.8753223 C3.48002398,46.0219312 3.52184671,46.1057077 3.52184671,46.2523167 C3.52184671,47.4880204 3.39637854,48.7237241 3.37546717,49.9594279 L3.54275807,49.9594279 C3.54275807,51.2998522 3.249999,56.3892761 3.06179674,57.7087563 C2.87359449,59.0282366 3.18726492,60.3477169 3.06179674,61.8975826 C3.06179674,62.4211858 3.16635355,63.719722 3.22908764,64.5993755 C3.29182173,65.479029 3.08270811,69.7306876 3.22908764,70.8826148 C3.534629,72.0578744 3.66845917,73.2712882 3.62640352,74.4850053 C3.51988787,75.3754375 3.51988787,76.2754218 3.62640352,77.1658541 L3.62640352,79.9304794 C3.50004515,82.388686 3.55596227,84.8528947 3.79369442,87.3028135 C3.79369442,89.3972266 4.33738983,92.9367848 4.37921255,95.6804659 L4.37921255,100.602337 C4.60923754,103.911509 5.00655341,105.33571 5.42478066,108.602995 C5.65480564,110.425134 5.61298291,112.561436 5.90574198,114.362631 C6.09394424,115.535502 5.90574198,116.457044 6.15667833,117.692748 C6.40761467,118.928451 6.70037374,121.693077 6.80493055,122.153848 C6.94401662,122.781517 6.94401662,123.432095 6.80493055,124.059763 L6.80493055,124.49959 C6.88586392,124.746008 6.9487645,124.998005 6.99313281,125.253579 C7.29032684,126.105214 7.47316024,126.992641 7.53682822,127.892539 C7.53682822,128.060093 7.53682822,128.227646 7.66229639,128.395199 C7.78776457,128.562752 7.80867593,128.793137 7.85049865,129.002578 C7.89232138,129.21202 8.45692815,129.191076 8.66604177,129.56807 C8.87515539,129.945064 8.66604177,130.657165 9.00062356,130.5315 C10.9453802,133.42179 12.5973778,132.940075 12.5973778,132.940075 C13.3501869,133.212349 14.4794004,132.479304 15.6295253,132.290807 C16.7796502,132.10231 17.9715979,130.196394 17.9715979,130.196394 L19.5817728,128.101981 C19.669975,127.477079 19.8098653,126.860597 20,126.258897 C19.7908864,122.070071 19.8117977,118.069742 19.247191,113.922804 C19.1039617,112.924319 19.0549521,111.914541 19.1008114,110.906849 Z" id="Path"></path>
            <path d="M51.2291894,28.1052632 C51.2291894,28.1052632 49.9697301,28.6105263 49.9487391,28.5684211 C50.3396593,28.3051925 50.7462418,28.0661511 51.1662165,27.8526316 C51.2711714,27.8526316 51.3971174,27.7473684 51.4600903,27.5789474 C52.0294098,27.1847273 52.651253,26.8728926 53.3072974,26.6526316 C53.3526625,26.6442493 53.3914697,26.6149873 53.4120991,26.5736074 C53.4327285,26.5322275 53.4327852,26.4835334 53.4122523,26.4421053 L53.2233334,26.4421053 C52.6933796,26.7139574 52.1379124,26.9325657 51.5650453,27.0947368 C51.5650453,27.0947368 52.4046848,26.5894737 52.4466668,26.5263158 C52.5245342,26.4615047 52.6089592,26.4050561 52.6985587,26.3578947 C52.8245046,26.3578947 52.9504505,26.3578947 53.0763965,26.2105263 C53.2023424,26.0631579 53.937027,26.0842105 54,25.8315789 C53.7900901,25.9789474 52.8874776,26.0210526 52.6775677,26.1684211 C52.4676578,26.3157895 51.4390993,26.4 51.2501804,26.5263158 C50.7130344,26.7877573 50.1590318,27.0128224 49.5918923,27.2 C49.6835188,27.0332534 49.8328641,26.9059371 50.0117121,26.8421053 L51.9009011,25.7894737 C51.9009011,25.7894737 50.8513516,26.0842105 50.8303606,26.0631579 C50.8093697,26.0421053 49.8857661,26.5684211 49.8437842,26.4 C49.8018022,26.2315789 49.8437842,26.2947368 49.8437842,26.1684211 C49.8437842,26.0421053 52.173784,25.2421053 52.2997299,25.1157895 C52.4256758,24.9894737 53.2863064,24.6947368 53.3492793,24.4210526 C53.4122523,24.1473684 53.4962163,24.4210526 53.5172073,24.4210526 C53.5203607,24.3840116 53.5037993,24.3480491 53.4736366,24.3264411 C53.443474,24.3048331 53.4041838,24.3007844 53.3702703,24.3157895 L53.2233334,24.3157895 L53.2233334,24.1894737 C53.2633362,24.1485428 53.2633362,24.0830362 53.2233334,24.0421053 L53.0763965,24.0421053 C52.9294596,24.0421053 50.9772976,24.6315789 50.7673877,24.9052632 C50.7673877,24.6947368 51.6700002,24.2526316 51.9009011,24.1473684 L51.9009011,24 L51.7119822,24 C50.6550701,24.4065262 49.5570174,24.6959644 48.4373879,24.8631579 L47.7236943,25.0947368 C44.7849558,25.6421053 28.3280204,30.2526316 23.8359487,31.5157895 C23.8359487,31.5157895 18.9240572,32.8421053 9.37315722,35.7263158 C9.2052293,35.8526316 7.46297721,36.4421053 7.27405831,36.5684211 C7.08513941,36.6947368 3.07586049,38.0421053 3.07586049,38.6736842 C3.07586049,38.8421053 1.48054532,40.0210526 1.39658137,40.1894737 C1.25229759,40.312112 1.12520141,40.4537447 1.01874356,40.6105263 L0.682887739,40.9473684 C0.368022902,41.3473684 0.829824662,42.1894737 0.682887739,42.6947368 L0.43099587,43.1578947 C0.291055942,43.3450292 0.291055942,43.6023392 0.43099587,43.7894737 C0.116131033,45.6631579 0.598923782,44.6526316 0.43099587,46.0421053 C0.556941804,46.3578947 -0.240715781,47.1789474 0.0741490552,47.6842105 C0.499985219,48.1574026 0.802811201,48.7286766 0.955770597,49.3473684 C0.955770597,49.7052632 2.27820291,49.8105263 3.0548695,50 C3.53561709,49.846048 4.02663613,49.7264504 4.52423874,49.6421053 L4.75513962,49.6421053 C6.04776889,49.1545039 7.37360241,48.7605107 8.72243656,48.4631579 C9.39897441,48.2008293 10.1032745,48.0171735 10.8215355,47.9157895 C11.0524363,47.9157895 11.2623462,47.7473684 11.5142381,47.7052632 C12.051542,47.4280467 12.6138111,47.2024786 13.1935172,47.0315789 C13.572815,46.8292377 13.9655792,46.6533816 14.3690126,46.5052632 C15.1773008,46.016995 16.0549784,45.6549546 16.9718953,45.4315789 C18.5672104,44.6526316 20.4983814,43.8315789 21.6948678,43.3263158 C23.5420748,42.4 26.3758584,41.4105263 28.936759,40.2736842 C33.1349569,38.3789474 39.0963978,36.0631579 39.2433347,36.0631579 L48.143514,32.4421053 C48.6682888,32.2947368 48.5633338,32.1052632 48.7312617,32.0210526 C49.2980184,31.7052632 49.2770275,31.8315789 49.7178382,31.5578947 C49.7178382,31.3473684 50.5574778,31.2 50.200631,31.2210526 C50.1320655,31.2409371 50.0592866,31.2409371 49.9907211,31.2210526 L49.7808112,31.0105263 C49.5709013,30.8 50.0327031,30.5894737 50.0327031,30.5263158 C50.0327031,30.4631579 50.4525228,30.2947368 50.6204508,30.1473684 C51.3551354,29.5578947 49.4449554,30.3157895 49.4659464,30.1473684 L49.7388292,29.9789474 C49.7388292,29.9789474 51.2711714,29.2210526 51.2921624,29.2 C51.3131534,29.1789474 51.6070272,28.9684211 51.5860363,28.7368421 C51.5650453,28.5052632 51.8379281,28.4842105 51.9428831,28.3368421 C52.047838,28.1894737 53.5381982,27.4947368 53.6221622,27.3684211 C52.9640924,27.6305643 52.3195578,27.9256725 51.6909912,28.2526316 C51.618854,28.3248975 51.5125649,28.3508023 51.4154057,28.3197972 C51.3182465,28.2887921 51.2464257,28.2060496 51.2291894,28.1052632 L51.2291894,28.1052632 Z" id="Path"></path>
            <path d="M47.9925308,57.2189295 C48.0109103,57.1590379 47.9947828,57.0938586 47.95062,57.0495467 C47.9064572,57.0052348 47.8414971,56.9890528 47.781807,57.0074944 C46.9178395,57.197786 46.0960168,57.4726516 45.2320493,57.6206561 C44.3680818,57.7686607 43.9466343,58.0858133 43.3144629,58.1492438 C42.2040102,58.297805 41.1102817,58.5526898 40.0482444,58.9104101 C38.9735531,59.0795582 37.9410066,59.3121368 36.8241706,59.4812848 C35.8290989,59.5936957 34.8478112,59.8061994 33.8951101,60.1155901 C33.7686758,60.1155901 33.3683007,60.3693122 33.052215,60.4538862 C32.0407409,60.7498953 31.2610629,61.193909 30.0810097,61.5956356 C28.9009566,61.9973623 28.3320024,62.1242233 27.2362388,62.483663 L26.4776332,62.7585286 C25.1500734,63.0968247 25.1711457,63.4139773 23.8646583,63.8368475 C23.5485726,63.8368475 22.5160261,64.4500092 22.3263747,64.5134397 C20.6654082,65.2621725 19.0720291,66.1535152 17.5640174,67.1775217 C17.4787211,67.249258 17.38702,67.3129577 17.2900765,67.3678133 L17.2900765,66.9449431 C16.5557495,67.4446463 15.753883,67.8362527 14.9088978,68.1078361 L14.5928121,68.2135536 C10.5452531,70.3585488 6.68887178,72.8485457 3.06622151,75.6560684 L3.06622151,79.6310479 C2.93889019,82.1126553 2.99523787,84.6003219 3.23480053,87.0735627 C3.23480053,88.3421731 3.44552431,90.1393713 3.61410333,92 C3.78268235,92 3.97233375,91.8308519 4.14091277,91.7462779 C4.8061347,90.9079906 5.61192596,90.1924939 6.52209145,89.6319271 C7.40713132,88.5747517 8.29217118,87.5175763 9.19828342,86.544975 C11.7748028,83.6825224 14.8174239,81.2802471 18.1961887,79.4407563 L18.1961887,79.2716082 C18.1961887,79.2081777 19.6923275,77.8761367 22.5370985,75.6772119 C22.5370985,75.6772119 25.2554352,73.7320092 25.9508237,73.309139 C27.0887321,72.6114032 28.0580615,71.8713805 28.9009566,71.3639363 C29.067328,71.2609887 29.2166373,71.1325773 29.3434765,70.9833531 C29.6174174,70.6662005 30.038865,70.7084875 30.3970954,70.3913349 C30.7049319,70.1041149 31.0618441,69.8749201 31.4507143,69.7147427 C31.6583242,69.6397924 31.8408336,69.507942 31.9775237,69.3341595 L32.1250304,69.2072985 L32.2936094,69.2072985 C32.6518398,69.2072985 32.6939846,68.8267153 33.1154321,68.8267153 C33.5368797,68.8267153 33.3472283,68.3192711 33.8108206,68.1924101 C34.4607324,67.9121403 35.0218435,67.4588115 35.4333937,66.8815126 C34.9065842,67.0083737 34.7380052,66.8815126 34.3165577,67.3889568 C33.8951101,67.896401 34.169051,67.3889568 34.2111958,67.3889568 C34.2533405,67.3889568 34.0847615,67.2409522 34.2111958,67.1775217 C34.33763,67.1140912 34.2111958,67.1775217 34.3797748,67.0295172 C34.5483538,66.8815126 34.5483538,67.0295172 34.611571,67.0295172 C34.6747881,67.0295172 34.611571,66.733508 35.1383804,66.691221 C35.6651898,66.648934 35.3280318,66.691221 35.6862622,66.522073 C35.8783326,66.1904096 36.1120385,65.8848558 36.3816507,65.6129021 C36.5713021,65.4437541 36.5713021,65.147745 36.9927496,65.4226106 C37.4141972,65.6974762 37.2666905,65.0208839 37.3088353,65.1054579 C37.8988619,64.8305923 38.4888885,64.5980137 38.6153227,64.0482825 C38.6153227,63.8368475 38.8049741,63.8368475 38.9735531,63.8368475 C39.14549,63.8608553 39.3198797,63.8152087 39.4582178,63.7099864 C39.6057245,63.5831254 39.8164482,63.4562643 39.6478692,63.2659728 C39.457699,63.1606243 39.2269405,63.1606243 39.0367703,63.2659728 C38.7206846,63.7099864 38.0252961,63.6254124 37.6038486,63.9214215 L37.3720524,64.0905696 C37.2032452,64.0212458 37.0140503,64.0212458 36.845243,64.0905696 C36.5080849,64.5557267 35.7916241,64.4500092 35.3701765,64.7460183 C35.3701765,64.5980137 35.3701765,64.4500092 35.6441175,64.4711527 C35.7494793,64.0905696 36.2762888,64.1540001 36.5080849,63.984852 C37.9005482,63.3401041 39.227312,62.5611858 40.469692,61.6590662 C40.6171986,61.4264876 39.5846521,62.1876538 39.5635797,61.8916447 C39.5425073,61.5956356 39.8375206,61.4053441 40.2589682,61.1727655 C40.5332466,61.1871214 40.7957209,61.0594316 40.9543566,60.8344693 C41.3943663,60.6538462 41.8541307,60.5260971 42.3240612,60.4538862 C42.7244364,60.4538862 42.9773049,60.3058816 43.0615944,60.0098725 C42.6134177,60.0596247 42.161139,60.0596247 41.7129622,60.0098725 C42.3240612,59.6504329 42.9140878,59.2698498 43.5041143,58.9526971 C44.0941409,58.6355445 45.2109769,58.4241094 46.0749444,58.1492438 L47.9925308,57.2189295 Z" id="Path"></path>
            <path d="M68.810433,58.5445091 C68.662992,58.3976483 69.168504,57.8941257 68.347047,58.0200063 C67.4882216,58.3510444 66.6744588,58.7880421 65.9248019,59.320773 C64.7758129,59.748421 63.6858895,60.3194363 62.6810997,61.0201618 C62.4915327,61.1670226 61.8385797,61.5866247 61.3541307,61.9432866 L61.3541307,61.838386 C60.2385717,62.8441331 58.8939402,63.5642082 57.4364125,63.9363968 L55.3301124,65.2791237 L55.1826714,65.2791237 C54.6893867,65.8718669 54.123271,66.4005117 53.4976314,66.8526318 L53.4976314,67.0624329 L53.2238123,67.272234 C52.6037752,67.6263213 52.0306271,68.0562526 51.5177093,68.5520206 C51.0964492,69.1184835 50.2539292,69.0765233 50.1907402,70.0206281 C49.4324722,70.1465088 49.2850312,71.2584545 48.6110151,71.4472755 C47.9369991,71.6360965 47.7684951,72.6641218 47.3051091,72.9368632 C46.294085,73.5452863 45.788573,74.7831127 44.840738,75.3915358 C44.356289,75.7062374 43.7033359,75.8950584 43.6401469,76.7762229 C43.6401469,77.0909245 43.3452649,77.1119047 43.1556979,77.1958251 C42.5773192,77.5337187 42.0923641,78.0095557 41.7444769,78.5805122 C41.7444769,78.5805122 37.1527427,84.3920021 35.9942776,85.9864904 C34.8358126,87.5809786 30.3493934,93.1616873 29.0645503,95.1128373 C23.9883671,102.854497 18.9121839,111.372421 18.9121839,111.372421 L18.9121839,110.197535 C18.4053,110.843798 17.8097058,111.415861 17.1428918,111.896924 C16.3530168,113.258673 15.2298647,114.399057 13.8781267,115.211781 C13.1401038,116.472292 12.1157225,117.542941 10.8871806,118.337817 C10.4303769,119.027824 9.88516008,119.65553 9.2653295,120.205047 L9.05469949,120.477788 C8.71891659,120.960702 8.34566125,121.416666 7.93836044,121.841495 C7.69248272,122.573662 7.36761764,123.277111 6.9694624,123.939506 C6.71670639,125.282233 5.85312335,125.827715 6.02162736,126.184377 C6.19013137,126.541039 6.61139139,126.457119 6.61139139,127.464164 C6.61139139,128.471209 7.41178542,127.464164 7.41178542,128.114547 C7.41178542,129.331394 8.25430545,128.827871 8.65450247,129.562175 C8.80194348,129.813936 8.65450247,130.65314 8.99151049,130.52726 C10.9503696,133.422515 12.6143466,132.939972 12.6143466,132.939972 C13.3726147,133.212714 14.5100167,132.47841 15.6684818,132.289589 C16.8269468,132.100768 18.0275379,130.191578 18.0275379,130.191578 L25.5680922,119.974265 C25.5680922,119.974265 41.8076659,94.5883346 49.9801102,81.7485085 C50.2164382,81.5059275 50.4346693,81.2464831 50.6330632,80.9722445 C50.963993,80.5453951 51.2138311,80.0619055 51.3702683,79.5455972 L51.8968433,78.727373 L52.1495993,78.4336515 C52.5360178,77.7097166 52.9650466,77.0091586 53.4344423,76.3356407 C53.4344423,76.3356407 53.8978284,75.5593767 53.8767654,75.5803568 L54.4665294,74.6152718 C54.4578348,74.7199936 54.4578348,74.8252516 54.4665294,74.9299734 C55.380385,73.1986525 56.8170885,71.796958 58.5738146,70.9227728 C59.1961752,69.7515616 60.0570411,68.7225881 61.1013747,67.9016372 C61.4550433,67.224942 61.8861962,66.5913183 62.3862177,66.0134275 L62.3862177,65.8665668 C62.8172209,65.3608358 63.2741964,64.8776479 63.7553128,64.4189393 C64.1344468,64.2301183 64.6610218,63.3489538 64.7663368,63.3279737 C65.305788,63.0913376 65.7713999,62.7145168 66.1143689,62.2370081 C66.1960234,62.1241729 66.2876627,62.0188514 66.3881879,61.9223064 C66.5356289,61.6705451 66.6830699,61.4187839 66.8515739,61.1670226 C66.8649608,61.0836318 66.8649608,60.998652 66.8515739,60.9152613 C66.8515739,60.6844801 67.1043299,60.6425199 67.2728339,60.5166392 L67.5255899,60.2019376 C67.6242343,60.033487 67.7526842,59.8842186 67.904724,59.7613553 L68.073228,59.5515542 C68.3589834,59.247441 68.6689135,58.9667952 69,58.7123499 L68.810433,58.5445091 Z" id="Path"></path>
            <path d="M65.6458907,75.3724138 C65.6458907,75.3724138 65.2590024,75.2275862 65.2590024,75.1655172 C65.2590024,74.7310345 64.2058063,73.0965517 64.0123621,72.0413793 C63.7577785,71.2191626 63.4564102,70.4110458 63.1096226,69.6206897 C62.6472368,68.4482453 62.2736999,67.2450961 61.9919451,66.0206897 L62.1424017,65.8551724 C61.5719928,64.6811423 61.2157285,63.4213795 61.0892056,62.1310345 L60.9817366,62.1310345 C60.6448513,61.3101773 60.3998697,60.4570775 60.2509475,59.5862069 C60.2509475,59.1103448 59.9500343,58.6551724 60.1004909,58.137931 C59.8855529,57.537931 60.1004909,56.8965517 60.1004909,56.2965517 C60.2622265,56.0602231 60.3651963,55.7911902 60.4014041,55.5103448 C60.4014041,54.9517241 60.5518607,54.2275862 60.5733545,54.0413793 C60.5971167,53.5038279 60.531818,52.9660627 60.3799103,52.4482759 C60.1864661,52.4482759 59.9500343,52.2206897 59.8640591,52.5724138 C59.8407217,52.6451991 59.7959182,52.70989 59.7350964,52.7586207 C59.4986646,52.5724138 59.0902824,52.3241379 58.8108631,52.5931034 C58.5314437,52.862069 58.1230615,52.9862069 57.9296174,52.8827586 C58.0800739,52.3862069 58.1230615,52.262069 57.9296174,51.9931034 C57.7807265,51.9635551 57.6271385,51.9635551 57.4782476,51.9931034 C57.3492848,51.5793103 57.1773344,51.6827586 56.9409027,51.5793103 C56.9179382,51.5121162 56.9179382,51.439608 56.9409027,51.3724138 C56.9409027,51.2482759 57.1558406,51.1034483 56.9409027,51 C56.6667874,51.0942195 56.4121146,51.2343022 56.1886197,51.4137931 C56.0811507,51.3103448 56.1886197,51.4137931 55.8017314,51.4137931 C55.5094555,51.3136741 55.2067793,51.2443045 54.8989919,51.2068966 C54.4049749,51.2621717 53.959101,51.5181813 53.6738454,51.9103448 C53.8672896,52.137931 53.501895,52.3862069 53.5663764,52.6137931 C53.5145535,52.666694 53.446972,52.7028347 53.3729322,52.7172414 C53.0505253,52.7172414 53.0075377,52.5724138 52.3842175,52.7172414 C51.7608974,52.862069 52.2552547,53.3586207 52.0618106,53.7103448 C51.8683664,54.062069 52.1907734,54.5586207 52.1907734,54.5586207 C52.2113641,54.6863726 52.247433,54.8113626 52.2982423,54.9310345 C52.5333369,55.3181742 52.631399,55.7683577 52.5776617,56.2137931 C52.5776617,56.4206897 52.4486989,56.6068966 52.5776617,56.8551724 C52.8038968,57.5789601 52.8625905,58.3416806 52.7496121,59.0896552 C52.6166489,59.4439684 52.6166489,59.8318937 52.7496121,60.1862069 C52.8785749,60.3724138 52.7496121,61.0344828 52.7496121,61.0551724 C52.90226,61.7351454 52.9814915,62.4284839 52.9860439,63.1241379 C52.9601337,63.4547026 52.9601337,63.7866767 52.9860439,64.1172414 C52.903385,64.6868902 52.903385,65.2648339 52.9860439,65.8344828 L52.9860439,67.0551724 C53.1754248,68.2482491 53.1754248,69.4620957 52.9860439,70.6551724 C53.1973571,71.5233293 53.3055197,72.4117852 53.3084508,73.3034483 C53.5855391,73.7739448 53.8227404,74.2651936 54.0177462,74.7724138 C54.3381545,75.549819 54.5548218,76.3632076 54.6625601,77.1931034 L54.6625601,77.3793103 C55.2643864,78.1655172 55.7157562,79.4482759 56.5755081,80.4413793 C56.5755081,80.4413793 56.8119399,80.5448276 56.8119399,80.7103448 C56.8119399,80.8758621 57.0483716,80.9172414 57.8436422,80.8758621 L58.1875429,80.8758621 C58.3477294,80.9537407 58.5239799,80.9961548 58.7033941,81 C59.025801,81 60.2939351,80.7103448 60.8527738,80.6482759 L61.9059699,80.6482759 C62.3363946,80.6653433 62.7645583,80.580072 63.1526102,80.4 L63.7329427,80.2551724 C64.6457099,79.5463199 65.6780594,78.9934721 66.785062,78.6206897 C66.785062,78.3103448 66.9140248,78.0206897 67,77.7310345 C66.4515976,77.00019 65.9969335,76.208245 65.6458907,75.3724138 L65.6458907,75.3724138 Z" id="Path"></path>
            <path d="M79.8569604,96.5610514 C79.8079782,94.8226892 79.8557355,93.0828806 80,91.3500821 C80,91.1198787 79.734355,85.0718059 80,84.86253 C80,83.9835713 79.6117497,80.4258815 79.7139208,80.1328952 C79.7350802,79.151027 79.6597758,78.1694681 79.4891443,77.203033 C79.4891443,76.8054088 79.4891443,74.9009984 79.366539,74.3778087 C79.2441614,73.8218033 79.1892551,73.2524549 79.2030651,72.6826741 C79.3138153,72.0388764 79.3138153,71.3802061 79.2030651,70.7364084 C79.0292809,69.3480222 78.9337628,67.9505331 78.916986,66.5508909 C78.916986,66.5508909 78.6309068,65.7765702 78.916986,65.5045116 C78.9178364,64.496327 78.8495543,63.4893258 78.7126437,62.490939 C78.7150052,61.6571639 78.653514,60.8244833 78.5287356,60.000556 L78.5287356,57.4055352 C78.5287356,56.8404903 78.4061303,54.9360799 78.5287356,54.6640212 C78.6119632,54.3914961 78.6119632,54.0994429 78.5287356,53.8269177 C78.4996392,53.5976786 78.4996392,53.3655465 78.5287356,53.1363073 C78.4674855,52.5660064 78.4674855,51.9905461 78.5287356,51.4202452 C78.5287356,50.9179831 78.5287356,50.3320106 78.8761175,49.9134589 C78.9773764,49.8012026 78.9773764,49.628091 78.8761175,49.5158347 C78.4469987,49.2228485 78.2835249,48.636876 77.752235,48.4903829 C77.6500639,48.6787312 77.4457216,48.6996588 77.3639847,48.6159484 C77.1333391,48.4012234 77.0001244,48.0980433 76.9961686,47.7788449 C76.9961686,47.2765828 76.5261814,47.0882346 76.3627075,46.6906104 L76.2401022,46.6906104 C76.1174968,46.6906104 76.1174968,46.9208139 75.9744572,46.8998863 C75.8314176,46.8789587 76.1174968,46.6696828 75.9744572,46.5859725 C75.8314176,46.5022621 75.6679438,46.3976242 75.6679438,46.711538 C75.6679438,47.0254518 75.6679438,46.9208139 75.5453384,46.711538 C75.4978471,46.5988761 75.4101336,46.5090449 75.3001277,46.4604069 C75.1775223,46.4604069 75.3001277,46.6069 75.1162197,46.5859725 C74.9323116,46.5650449 75.1162197,46.355769 74.9936143,46.2511311 C74.8710089,46.1464931 74.8301405,45.9581448 74.6666667,46.2511311 C74.5031928,46.5441173 74.5440613,46.2511311 74.5236271,46.2511311 C74.5031928,46.2511311 74.5236271,46 74.4010217,46 L73.9310345,46 C73.7879949,46 73.9310345,46 73.9310345,46.1255655 C73.9310345,46.2511311 73.9310345,46.3766966 73.7471264,46.3348414 C73.5632184,46.2929862 73.3793103,46.2092759 73.3793103,46.3348414 C73.3793103,46.4604069 73.1545338,46.6487552 73.1545338,46.6487552 C73.1545338,46.6487552 73.1545338,46.5022621 72.4393359,46.8998863 C71.7241379,47.2975104 71.8876117,48.5531657 71.908046,48.5740933 C71.9284802,48.5950209 71.908046,49.4321244 71.908046,49.4949071 C71.908046,49.5576899 71.4380587,49.8506761 71.4380587,49.955314 C71.4380587,50.4366486 70.5389527,52.5503349 70.4367816,53.2828005 C70.3598571,53.8704127 70.1944173,54.442253 69.9463602,54.977935 C69.9046433,55.2623499 69.9046433,55.5515513 69.9463602,55.8359661 C69.9463602,56.0243144 69.7011494,55.9615317 69.7011494,56.2126627 C69.6372847,56.8425021 69.5210694,57.4656133 69.3537676,58.075218 C69.0676884,58.3472766 69.1289911,58.4728422 69.0268199,58.786756 C68.9246488,59.1006698 69.0268199,58.786756 69.0268199,58.9123215 L69.0268199,59.2262353 C69.0268199,59.8959181 68.7203065,61.1934285 68.6385696,61.5282699 C68.49553,62.1979527 67.6985951,65.7137874 67.6781609,66.0277013 C67.6577267,66.3416151 67.4329502,67.2624289 67.4533844,67.5344876 C67.4738186,67.8065462 66.5747126,72.0339189 66.6155811,72.075774 C66.6564496,72.1176292 66.3703704,73.3314293 66.2273308,73.9801845 C66.2772347,74.4801823 66.1997929,74.9848922 66.0025543,75.4451156 L65.6756066,75.1102742 C65.5368834,75.8262823 65.3316063,76.5270597 65.0625798,77.203033 C64.9146812,78.2115663 64.6611986,79.2008627 64.3065134,80.1538228 C64.3065134,80.2793883 64.3065134,80.4049539 64.183908,80.5305194 C64.0613027,80.6560849 64.183908,81.3466953 64.183908,82.0373057 C64.183908,82.7279161 64,86.9762164 64,87.1645646 L64,92.3964615 C64,93.0242891 64.183908,95.8076583 64.1634738,95.9541514 C64.1430396,96.1006445 63.9182631,97.3981549 64.1634738,97.6911412 L64.1634738,97.9422722 C64.1390725,98.0947238 64.1390725,98.2502275 64.1634738,98.4026791 C64.1977192,99.0477559 64.2659325,99.6904699 64.3678161,100.328017 L64.3678161,101.227903 C64.3678161,101.227903 64.265645,101.395324 64.3678161,101.458107 L64.3678161,101.876659 C64.3422667,101.929398 64.3422667,101.99134 64.3678161,102.044079 L64.3678161,102.90211 C64.3431555,103.068579 64.3431555,103.237904 64.3678161,103.404373 C64.4406259,103.452032 64.4920526,103.527272 64.5108557,103.613648 C64.5108557,104.178693 64.5108557,104.743738 64.633461,105.350638 C64.6368027,105.399409 64.6368027,105.44836 64.633461,105.497131 C64.6145592,105.91956 64.6558616,106.342556 64.7560664,106.752787 L64.7560664,107.045773 C64.657722,107.830828 64.657722,108.625535 64.7560664,109.41059 C64.7618947,110.184434 64.8440488,110.955696 65.0012771,111.712625 C65.1443167,112.193959 65.2464879,113.805384 65.2873563,113.679818 C65.2873563,114.223935 65.3895275,114.768053 65.4508301,115.31217 L65.614304,116.693391 L65.614304,116.881739 L65.7573436,117.614204 L65.9412516,119.100063 C65.9231755,119.259974 65.9231755,119.421487 65.9412516,119.581398 L66.0842912,120.77427 L66.0842912,121.067256 C65.9412516,121.067256 65.9412516,121.192822 65.9412516,121.339315 C65.9412516,121.485808 66.1251596,121.778794 66.2068966,121.98807 L66.2068966,122.574043 C66.1084383,122.887011 66.1084383,123.223744 66.2068966,123.536712 C66.3008901,123.877817 66.3557514,124.228979 66.3703704,124.583091 C66.3538997,125.157233 66.4584443,125.728266 66.6768838,126.257298 L66.6768838,125.964312 C66.6768838,125.859674 66.5542784,125.608543 66.7994891,125.62947 C66.9669333,125.670295 67.0799384,125.830541 67.0651341,126.006167 C67.016685,126.19834 67.016685,126.399967 67.0651341,126.59214 C67.0651341,126.968836 67.2081737,127.345533 67.2694764,127.722229 C67.3157177,128.083428 67.3157177,128.449265 67.2694764,128.810464 C67.2694764,129.082522 67.596424,129.249943 67.4329502,129.584785 C67.2694764,129.919626 67.6168582,129.898698 67.596424,129.919626 C67.4743631,130.055721 67.4743631,130.264865 67.596424,130.40096 C67.7598978,130.547454 67.8007663,130.652091 67.596424,130.819512 C67.8416347,130.945078 67.596424,131.175281 67.596424,131.363629 C67.6804015,131.598855 67.7286426,131.845885 67.7394636,132.096095 C67.7394636,132.326298 67.9846743,132.430936 68.0664112,132.66114 C68.1481481,132.891343 67.9438059,132.66114 67.9438059,132.786705 C68.0866483,133.756069 68.3617951,134.700066 68.761175,135.591002 C68.5977011,135.08874 68.761175,134.544623 68.3729246,134.042361 C68.114322,133.735882 68.114322,133.281533 68.3729246,132.975054 L68.6794381,134.56555 C68.6794381,134.774826 68.6794381,135.046885 68.8020434,135.151523 C68.9246488,135.256161 69.0472542,135.69564 69.0881226,135.967699 C69.1289911,136.239757 69.4355045,136.511816 69.4150702,136.846657 C69.660281,136.637382 69.4150702,136.323468 69.5172414,136.093264 C69.2311622,135.967699 69.3333333,135.737495 69.3128991,135.507292 C69.2924649,135.277088 69.4559387,135.151523 69.3128991,134.942247 C69.1698595,134.732971 69.1902937,134.460912 69.1494253,134.209781 C69.1085568,133.95865 68.9655172,133.728447 69.2924649,133.602881 C69.2924649,133.35175 69.2924649,133.100619 69.0881226,132.912271 C68.8837803,132.723923 68.9655172,132.702995 69.0881226,132.598357 C69.210728,132.493719 69.210728,132.179805 69.0881226,131.97053 C68.9655172,131.761254 69.0881226,131.844964 69.0881226,131.844964 L69.210728,131.949602 L69.4968072,133.435461 C69.7624521,133.330823 69.4968072,133.058764 69.7215837,132.975054 C69.7215837,134.000505 70.293742,134.879464 70.4163474,135.883988 C70.4163474,136.197902 70.8250319,136.323468 70.7841635,136.574599 C70.7782806,136.637237 70.7782806,136.700309 70.7841635,136.762947 C70.7878948,136.825672 70.7878948,136.888571 70.7841635,136.951295 C71.00894,137.118716 70.9476373,137.43263 71.192848,137.558195 C71.4380587,137.683761 71.192848,137.558195 71.192848,137.704688 C71.2235159,137.778209 71.2235159,137.861371 71.192848,137.934892 C71.2950192,138.081385 71.3971903,137.934892 71.4993614,137.934892 C71.6015326,137.934892 71.4993614,137.43263 71.2337165,137.265209 C70.9680715,137.097788 71.2337165,137.035006 71.2337165,136.951295 C71.2337165,136.867585 71.2337165,136.951295 71.4176245,137.076861 C71.5340686,137.194196 71.606419,137.3498 71.6219668,137.51634 C71.7445722,137.997675 71.8058748,137.369847 71.908046,137.51634 C71.908046,137.118716 71.5402299,136.804802 71.6832695,136.38625 C71.3767561,136.281613 71.6832695,135.737495 71.2745849,135.716568 C71.2745849,135.465437 71.0906769,135.256161 71.2745849,135.00503 C71.2680913,134.963439 71.2680913,134.921055 71.2745849,134.879464 L71.3971903,134.879464 C71.5197957,134.879464 71.4993614,135.277088 71.5810983,135.465437 C71.6628352,135.653785 71.9489144,135.821206 72.0306513,136.051409 C72.1123883,136.281613 72.2962963,136.323468 72.4189017,136.469961 C72.541507,136.616454 72.4189017,136.867585 72.6232439,136.993151 C72.8275862,137.118716 72.6232439,136.993151 72.6232439,137.097788 C72.6232439,137.202426 72.7254151,136.972223 72.6232439,136.867585 C72.5676018,136.626755 72.5676018,136.37595 72.6232439,136.135119 C72.6232439,136.428106 72.9706258,136.595526 72.99106,136.90944 L73.1136654,136.721092 L73.1136654,136.574599 C72.937727,136.351886 72.8246601,136.084106 72.7867178,135.800278 C72.7867178,135.339871 72.4802043,134.900392 72.6641124,134.419057 L72.6641124,134.293492 C72.4597701,133.833085 72.4597701,133.833085 72.6641124,133.435461 L72.6641124,133.226185 C72.6641124,132.640212 72.9706258,132.05424 72.6641124,131.468267 C72.6641124,131.342702 72.6641124,131.238064 72.7662835,131.133426 C72.821774,131.094762 72.8947011,131.094762 72.9501916,131.133426 C73.0333232,131.519435 73.0333232,131.919361 72.9501916,132.305371 C72.9501916,132.514647 73.1136654,132.74485 72.9501916,132.975054 C72.7867178,133.205257 73.0932312,133.26804 73.1136654,133.456388 C73.1340996,133.644737 72.9501916,133.87494 73.1136654,134.105143 C73.2771392,134.335347 73.1136654,134.419057 73.2975734,134.544623 C73.2323257,134.055681 73.318067,133.558083 73.5427842,133.121547 C73.5427842,133.770302 73.9514687,134.167926 73.9719029,134.691116 C74.155811,134.691116 73.9719029,134.502768 73.9719029,134.39813 C73.9719029,134.293492 73.9719029,134.188854 74.0740741,134.188854 C74.1762452,134.188854 74.0740741,134.314419 74.0740741,134.39813 C74.0740741,134.48184 74.0740741,134.39813 74.2375479,134.39813 C74.4010217,134.39813 74.4010217,134.39813 74.2375479,134.39813 C74.0740741,134.39813 74.2375479,134.837609 74.2375479,135.046885 C74.2375479,135.256161 74.2375479,134.732971 74.5236271,134.628333 C74.8097063,134.523695 74.5236271,134.356274 74.3601533,134.251637 C74.1966794,134.146999 74.8097063,134.105143 74.4827586,133.854012 C74.4143482,133.753393 74.4143482,133.61979 74.4827586,133.519171 C74.7075351,133.18433 74.4827586,132.723923 74.7688378,132.430936 C75.054917,132.13795 74.7688378,132.326298 74.7688378,132.284443 C74.7326153,132.248916 74.7121318,132.199779 74.7121318,132.148414 C74.7121318,132.097049 74.7326153,132.047912 74.7688378,132.012385 C74.9805521,131.654472 75.0396429,131.223284 74.9323116,130.819512 C74.9323116,130.652091 74.9323116,130.526526 74.7688378,130.568381 C74.605364,130.610236 74.7688378,130.442816 74.7688378,130.380033 C74.7688378,130.31725 74.7688378,130.380033 74.9118774,130.380033 C74.9845324,130.43584 75.0844331,130.43584 75.1570881,130.380033 C74.8710089,130.254467 75.1570881,130.087047 75.1570881,129.940554 C75.1570881,129.79406 75.3818646,129.668495 75.3409962,129.563857 C75.3001277,129.459219 75.4636015,128.831391 75.3409962,128.49655 C75.6897437,128.113224 76.065371,127.756506 76.4648787,127.429243 C76.4648787,127.429243 76.5670498,126.59214 76.4648787,126.59214 C76.379094,126.391219 76.3173432,126.180414 76.2809706,125.964312 C76.2346006,125.862256 76.2381249,125.743746 76.2904733,125.64477 C76.3428218,125.545793 76.4378181,125.478027 76.5466156,125.46205 C76.7505479,124.952017 76.8345445,124.400026 76.7918263,123.850626 C76.643212,123.676953 76.643212,123.417398 76.7918263,123.243726 C76.7918263,123.139088 77.0574713,122.992594 76.9348659,122.908884 C76.8122605,122.825174 76.9348659,122.197346 77.0574713,121.778794 C77.0380665,121.597966 77.0380665,121.415505 77.0574713,121.234677 C77.0574713,121.109112 77.0574713,120.962618 77.2413793,121.485808 L77.2413793,121.967143 C77.3066166,122.382618 77.2643425,122.80835 77.1187739,123.20187 C77.0514607,123.35491 77.0514607,123.530165 77.1187739,123.683205 C77.1642962,123.837285 77.2408704,123.979872 77.3435504,124.101757 C77.1596424,124.101757 76.8735632,125.210919 77.0574713,125.441122 C77.2413793,125.671326 77.0574713,125.964312 77.1800766,126.215443 C77.302682,126.466574 77.3844189,126.215443 77.3435504,126.361936 C77.2756251,126.444087 77.2476719,126.553319 77.2675218,126.65903 C77.2873716,126.764741 77.3528897,126.855563 77.4457216,126.906053 L77.4457216,127.19904 C77.5683269,127.659446 77.6296296,127.031619 77.7318008,127.19904 C77.8339719,127.36646 77.3844189,126.968836 77.5887612,126.717705 C77.7931034,126.466574 77.5887612,126.529357 77.5887612,126.424719 C77.5471335,126.377054 77.5471335,126.304963 77.5887612,126.257298 C77.7113665,126.257298 77.752235,126.257298 77.7726692,126.403791 C77.7931034,126.550284 77.7726692,126.613067 77.936143,126.67585 C77.9052758,126.488828 77.9052758,126.297827 77.936143,126.110805 L77.8135377,126.110805 C77.7696039,126.018325 77.7696039,125.910298 77.8135377,125.817819 C77.8135377,125.692253 78.0996169,125.671326 78.0383142,125.441122 C78.0383142,125.315557 78.0383142,125.231846 77.7931034,125.273702 C77.7931034,125.273702 77.9974457,125.106281 78.1404853,124.227322 L78.1404853,123.913408 C78.1279828,123.115346 78.2242708,122.319399 78.4265645,121.548591 C78.499569,121.419091 78.499569,121.25954 78.4265645,121.130039 C78.4265645,121.130039 78.2630907,121.130039 78.4265645,120.920763 C78.6348063,120.439243 78.7460091,119.91963 78.7535121,119.393049 C78.661587,118.923362 78.661587,118.439661 78.7535121,117.969973 C78.7376379,116.995205 78.8129066,116.021117 78.9782886,115.061039 C78.8911485,113.799985 78.8911485,112.5342 78.9782886,111.273145 C78.9782886,110.415114 79.2030651,107.58989 79.2234994,107.087628 C79.2439336,106.585366 79.4074074,102.671907 79.4482759,102.232428 C79.598299,101.205716 79.598299,100.161856 79.4482759,99.1351447 C79.9182631,98.6747378 79.734355,97.0005308 79.8569604,96.5610514 L79.8569604,96.5610514 Z" id="Path"></path>
            <path d="M104.27709,61.9268508 C102.897951,59.808227 101.762309,57.5412913 100.891641,55.1689189 C100.306502,53.3751469 99.8258514,51.560517 99.3452012,49.7250294 C98.7809598,47.6392479 98.5719814,45.3240306 97.8405573,43.2173913 L97.0464396,38.2323737 C96.5448916,36.3760282 95.8343653,32.6633373 95.8343653,32.6633373 C95.8343653,32.6633373 95.7298762,32.2044653 95.8343653,32.1210341 C95.6702708,31.2970382 95.5932239,30.4581361 95.6044892,29.6180964 C95.0337293,26.8217436 94.7051178,23.9815568 94.622291,21.1289659 C94.496904,20.8230513 94.4342105,20.5101841 94.4342105,20.1903643 C94.3487454,19.7496124 94.2928933,19.3036517 94.2670279,18.8554642 L94.0998452,18.8554642 C94.0998452,18.8554642 93.9326625,18.5008813 93.8072755,18.3340188 C93.6818885,18.1671563 93.9326625,17.4997062 93.8072755,17.2911281 C93.6400929,16.7696827 93.7027864,14.6839013 93.5773994,14.266745 C93.36096,13.5842105 93.1933558,12.887197 93.0758514,12.1809636 C92.8883949,11.4982905 92.7625062,10.8002476 92.6996904,10.0951821 C92.3444272,9.57373678 92.5952012,9.15658049 92.8668731,8.69770858 C93.1944585,8.18718306 93.3685185,7.59361685 93.3684211,6.9873678 C93.2938493,6.41902274 93.1607935,5.85986082 92.9713622,5.31874266 C92.3444272,5.17273796 92.3444272,4.56786134 91.9055728,4.25499412 C91.4667183,3.94212691 91.1950464,3.62925969 90.7143963,3.48325499 C90.2337461,3.33725029 89.9411765,2.23178613 89.000774,2.31521739 C88.6664087,2.31521739 87.6842105,1.48090482 87.4752322,1.23061105 C87.0623703,0.744466473 86.5491022,0.353137513 85.9705882,0.0834312573 C85.6153251,-0.104289072 85.2600619,0.0834312573 84.9047988,0.0834312573 C84.5495356,0.0834312573 83.9017028,0.750881316 83.379257,1.0220329 C82.8568111,1.29318449 83.1702786,1.56433608 83.0657895,1.85634548 C82.8179851,2.52960986 82.8179851,3.26886252 83.0657895,3.94212691 C83.1444194,4.96224729 83.0310109,5.98804394 82.7314241,6.96650999 C83.0448916,8.17626322 82.501548,9.05229142 82.7314241,10.6583431 C82.7399174,11.6593768 82.6062354,12.6565607 82.3343653,13.6201528 C82.2217304,14.3100236 82.1588752,15.0070766 82.1462848,15.7059342 C82.0546491,17.0949512 82.0546491,18.48848 82.1462848,19.8774971 C82.1462848,20.5866627 82.1462848,22.6098707 82.0417957,22.7975911 C82.0563871,23.4963395 82.1192297,24.1932525 82.2298762,24.8833725 C82.28431,25.1883576 82.2000784,25.5017108 82,25.7385429 C82,29.9101058 82.6478328,34.0816686 82.5642415,38.086369 C82.6215601,38.5083384 82.6564387,38.9330426 82.6687307,39.3586957 C82.8986068,39.3586957 83.0239938,39.7132785 83.0239938,39.880141 C83.1682,40.9884629 83.3704897,42.0884823 83.630031,43.1756757 C83.7107592,44.8862629 84.0780731,46.5712614 84.7167183,48.1606933 C84.852878,48.5503751 84.9303471,48.9580663 84.9465944,49.3704465 C85.0372098,50.1840579 85.2051486,50.9872236 85.4481424,51.7690952 C85.9914861,53.1039953 86.1168731,54.5223267 86.5766254,55.940658 C86.5766254,55.940658 89.126161,66.619859 92.5325077,68.4553467 C94.1317126,69.5045413 95.9092578,70.2537802 97.7778638,70.666275 C98.7625823,70.6670837 99.7440507,70.7790367 100.70356,71 C101.915879,70.9969827 103.105709,70.6731052 104.151703,70.0613984 C105.569038,69.4697608 106.823259,68.5469918 107.808824,67.3707403 C108.184985,66.9952996 108.602941,66.5364277 109,66.0358402 C106.993225,65.258707 105.322302,63.8049843 104.27709,61.9268508 L104.27709,61.9268508 Z" id="Path"></path>
            <path d="M113.703529,55.4302081 C112.877647,53.7912826 110.124706,57.3632997 110.124706,57.3632997 C109.658824,58.0777031 109.171765,58.7921065 108.663529,59.4644862 C107.582486,60.530323 106.397903,61.487515 105.127059,62.3220998 C104.739885,62.9511575 104.293159,63.5421627 103.792941,64.0870964 C102.765482,65.1745055 101.486129,65.9967358 100.065882,66.482449 C98.8995739,67.5091023 97.5865179,68.3587868 96.1694118,69.0038728 L96,69.4661339 L96,69.6342288 C96.2467201,69.8734888 96.4800125,70.1260114 96.6988235,70.3906559 C96.9482191,70.4571124 97.2035395,70.499335 97.4611765,70.5167271 C98.4504525,70.5687909 99.4307099,70.7308972 100.383529,71 C101.612013,70.9969604 102.817706,70.6706909 103.877647,70.0544661 C105.313881,69.4584588 106.584824,68.5288745 107.583529,67.3439355 C109.271009,65.5171527 110.814385,63.5642939 112.2,61.5026371 C113.128761,60.5683399 113.723763,59.3580673 113.894118,58.0566912 L113.894118,57.783537 C113.90267,57.8884249 113.90267,57.993827 113.894118,58.0987149 C113.897147,57.5996963 113.932514,57.1013873 114,56.6068725 C113.880297,56.2201228 113.781335,55.8273506 113.703529,55.4302081 L113.703529,55.4302081 Z" id="Path"></path>
            <g id="Group" transform="translate(68.000000, 4.000000)">
                <path d="M68.4410811,4.21052632 C68.4410811,4.31578947 68.8205405,4.04210526 69.0313514,3.93684211 C69.2421622,3.83157895 69.5372973,4.06315789 69.4740541,3.70526316 C69.4108108,3.34736842 69.1156757,3.41052632 69.0945946,3.15789474 C69.0860936,3.06686417 69.0860936,2.97524109 69.0945946,2.88421053 C69.0945946,2.88421053 69.0945946,2.67368421 68.9891892,2.75789474 C68.8837838,2.84210526 68.4832432,3.11578947 68.5254054,3.26315789 C68.5675676,3.41052632 68.2724324,3.93684211 68.3989189,4.23157895 M68.2091892,2.37894737 C68.3356757,2.37894737 68.3145946,2.25263158 68.3356757,2.16842105 C68.3567568,2.08421053 68.3356757,2.29473684 68.2091892,2.37894737 M64.8572973,5.03157895 C64.8572973,5.15789474 64.8572973,5.32631579 65.1102703,5.38947368 L65.2789189,5.38947368 C65.5318919,5.26315789 65.6794595,4.90526316 66.0589189,5.07368421 C66.4383784,5.24210526 66.1643243,4.82105263 66.2275676,4.69473684 C66.2908108,4.56842105 66.08,4.52631579 66.0378378,4.54736842 C65.7347157,4.6899337 65.4031404,4.76191802 65.0681081,4.75789474 C64.9205405,4.75789474 64.7940541,4.88421053 64.8572973,5.07368421 M69.4951351,2.10526316 C69.6216216,2.10526316 69.4951351,1.97894737 69.6216216,1.89473684 C69.7481081,1.81052632 69.5162162,2.02105263 69.4951351,2.10526316 M66.7967568,3.36842105 C66.9864865,3.36842105 67.5135135,2.98947368 67.5345946,2.75789474 C67.5556757,2.52631579 67.5345946,2.65263158 67.3659459,2.75789474 C67.1841898,2.82720408 66.9913126,2.86287388 66.7967568,2.86315789 C66.6491892,2.86315789 66.5437838,2.86315789 66.5437838,3.01052632 C66.5158697,3.19269405 66.6098256,3.37182241 66.7756757,3.45263158 M70.1486486,3.57894737 C70.4859459,3.57894737 70.3383784,3.26315789 70.4859459,3.17894737 C70.6335135,3.09473684 70.6967568,3.07368421 70.7178378,2.92631579 C70.7389189,2.77894737 70.7178378,2.67368421 70.7178378,2.58947368 C70.7178378,2.50526316 70.5281081,2.58947368 70.4227027,2.58947368 C70.3172973,2.58947368 70.1486486,2.8 70.1064865,2.58947368 C70.0643243,2.37894737 70.1064865,2.37894737 69.9589189,2.33684211 C69.8113514,2.29473684 69.7481081,2.33684211 69.7691892,2.46315789 C69.7415069,2.65867676 69.7415069,2.85711271 69.7691892,3.05263158 C69.7691892,3.24210526 69.8745946,3.49473684 70.1064865,3.55789474 M66.86,4.63157895 C66.6491892,4.77894737 66.6913514,5.05263158 66.86,5.28421053 C66.8958676,5.36711196 66.9806848,5.41793359 67.0708108,5.41052632 C67.3201595,5.35975072 67.4975634,5.13829514 67.4924324,4.88421053 C67.7243243,4.54736842 67.4924324,4.27368421 67.3237838,3.97894737 C67.1551351,3.68421053 67.1762162,3.97894737 67.0918919,3.97894737 C67.0075676,3.97894737 67.0918919,3.97894737 67.0918919,4.10526316 C67.0918919,4.23157895 67.2605405,4.52631579 66.9654054,4.71578947" id="Shape"></path>
                <path d="M68.0827027,3.47368421 C68.3276146,3.4757726 68.5356303,3.29513353 68.5675676,3.05263158 L68.5675676,2.88421053 C68.4996935,2.85829324 68.4246308,2.85829324 68.3567568,2.88421053 C68.1190623,2.93471203 67.9508964,3.14684546 67.9562162,3.38947368 C67.9489099,3.43599938 67.9643102,3.48321024 67.9976559,3.51651098 C68.0310016,3.54981172 68.0782763,3.56519116 68.1248649,3.55789474 M72.7837838,1.32631579 C72.8954216,1.31000795 72.9988723,1.25835242 73.0789189,1.17894737 C73.138483,1.10460866 73.1815925,1.01850599 73.2054054,0.926315789 C73.2054054,0.736842105 73.3318919,0.610526316 73.2054054,0.526315789 C73.0789189,0.442105263 73.0578378,0.526315789 72.9735135,0.652631579 L72.7416216,0.778947368 C72.6962445,0.818912219 72.6702491,0.87642093 72.6702491,0.936842105 C72.6702491,0.997263281 72.6962445,1.05477199 72.7416216,1.09473684 C72.7416216,1.09473684 72.7416216,1.32631579 72.8681081,1.32631579 M72.1091892,2.73684211 C72.3621622,2.86315789 72.4043243,2.73684211 72.4464865,2.52631579 C72.4886486,2.31578947 72.4464865,2.25263158 72.4464865,2.23157895 C72.2421388,2.21045787 72.0500909,2.3325052 71.9827027,2.52631579 C71.9827027,2.67368421 72.1091892,2.67368421 72.2145946,2.73684211 M71.0340541,2.10526316 C71.1605405,2.10526316 71.1394595,1.97894737 71.1605405,1.89473684 C71.1816216,1.81052632 71.0551351,2.02105263 71.0340541,2.10526316 M74.4491892,1.26315789 C74.4937567,1.19060329 74.529161,1.11281906 74.5545946,1.03157895 C74.5681771,0.912666262 74.5681771,0.792596896 74.5545946,0.673684211 C74.5545946,0.547368421 74.407027,0.526315789 74.3648649,0.547368421 C74.1649812,0.718102123 74.0826929,0.989287073 74.1540541,1.24210526 C74.1820342,1.27759682 74.2247679,1.29831312 74.27,1.29831312 C74.3152321,1.29831312 74.3579658,1.27759682 74.3859459,1.24210526 M75.1448649,0.736842105 C75.2502703,0.736842105 75.2502703,0.610526316 75.2713514,0.526315789 C75.2924324,0.442105263 75.3978378,0.294736842 75.2713514,0.252631579 C75.1448649,0.210526316 75.2713514,0.378947368 75.1448649,0.463157895 C75.0183784,0.547368421 75.0183784,0.694736842 75.1448649,0.736842105 M66.4594595,4.21052632 C66.3540541,4.21052632 66.2486486,4.21052632 66.2064865,4.33684211 C66.2000407,4.39279793 66.2000407,4.44930733 66.2064865,4.50526316 L66.4594595,4.21052632 M59.2497297,4.21052632 C59.4183784,4.21052632 59.4605405,4.21052632 59.4816216,4.06315789 C59.5027027,3.91578947 59.4816216,3.89473684 59.3551351,3.85263158 C59.2286486,3.81052632 59.1443243,3.85263158 59.1232432,4.02105263 C59.1104087,4.06324026 59.1171639,4.10895055 59.1416546,4.14563705 C59.1661453,4.18232355 59.2057983,4.20613156 59.2497297,4.21052632 M59.2286486,5.66315789 C59.3393135,5.80264875 59.5322661,5.84644243 59.6924324,5.76842105 C59.8610811,5.76842105 59.9243243,4.94736842 59.6924324,4.77894737 C59.4605405,4.61052632 59.5659459,4.77894737 59.5237838,4.77894737 C59.4467003,4.96347581 59.3398818,5.13415475 59.2075676,5.28421053 C59.2075676,5.28421053 59.0389189,5.47368421 59.2075676,5.57894737 M60.6832432,4.21052632 L60.8940541,4.21052632 C60.9572973,4.21052632 60.8940541,4.21052632 60.8940541,4.21052632 C61.1891892,3.81052632 60.7675676,3.6 60.8940541,3.28421053 C61.0205405,2.96842105 60.6621622,3.01052632 60.5356757,3.03157895 C60.4091892,3.05263158 60.2827027,3.30526316 60.3248649,3.45263158 C60.4216447,3.71240382 60.5490263,3.95975592 60.7043243,4.18947368 M57.4578378,5.83157895 C57.6264865,5.83157895 57.6686486,5.83157895 57.6897297,5.68421053 C57.7108108,5.53684211 57.6897297,5.51578947 57.5632432,5.47368421 C57.4367568,5.43157895 57.3524324,5.47368421 57.3313514,5.64210526 C57.3178935,5.72847203 57.3728308,5.81076683 57.4578378,5.83157895 M50.5221622,5.62105263 C50.7893067,5.71467708 51.0285506,5.87395777 51.2178378,6.08421053 C51.512973,6.33684211 51.4918919,6.33684211 51.7448649,6.08421053 C51.9978378,5.83157895 52.0821622,5.2 51.512973,5.03157895 C51.1466634,4.87381708 50.7198221,4.98690785 50.48,5.30526316 C50.3324324,5.47368421 50.2481081,5.62105263 50.48,5.68421053 M49.1518919,6.31578947 C49.3837838,6.04210526 49.4048649,6.06315789 49.9318919,5.91578947 L50.1005405,5.74736842 C50.0436313,5.59859171 49.957636,5.46261625 49.8475676,5.34736842 C49.8475676,5.34736842 49.5735135,5.13684211 49.4048649,5.34736842 C49.2169327,5.63051971 48.9898154,5.88568195 48.7302703,6.10526316 C48.5827027,6.25263158 48.7302703,6.29473684 48.7302703,6.31578947 C48.7302703,6.33684211 48.9621622,6.46315789 49.1097297,6.31578947 M52.6091892,5.11578947 L52.7778378,5.11578947 C53.3108417,5.0013528 53.8005261,4.73859383 54.1902703,4.35789474 L54.0848649,4.35789474 C53.6,4.35789474 53.1362162,4.56842105 52.6513514,4.61052632 C52.1664865,4.65263158 52.4616216,4.77894737 52.3983784,4.90526316 C52.3351351,5.03157895 52.3983784,5.15789474 52.6091892,5.2 M64.9416216,4.21052632 C65.0528224,4.19284456 65.1558718,4.14138942 65.2367568,4.06315789 C65.2948375,3.9878808 65.3377886,3.90209447 65.3632432,3.81052632 C65.3632432,3.62105263 65.4897297,3.49473684 65.3632432,3.41052632 C65.2367568,3.32631579 65.2156757,3.41052632 65.1313514,3.53684211 L64.8994595,3.66315789 C64.8191104,3.74501969 64.8191104,3.87603295 64.8994595,3.95789474 C64.8994595,3.95789474 64.8994595,4.18947368 65.0259459,4.18947368 M56.2351351,4.82105263 C56.0024263,4.78514259 55.7644162,4.82970927 55.5605405,4.94736842 L55.5605405,5.17894737 C55.5605405,5.26315789 56.2772973,5.03157895 56.2772973,4.88421053 M64.7097297,3.34736842 C64.9416216,3.07368421 64.9627027,3.09473684 65.4897297,2.94736842 L65.6372973,2.77894737 C65.7848649,2.61052632 65.5108108,2.46315789 65.3843243,2.37894737 C65.2578378,2.29473684 65.1102703,2.16842105 64.9416216,2.37894737 C64.7793407,2.66294091 64.5809359,2.92476487 64.3513514,3.15789474 C64.2037838,3.28421053 64.3513514,3.32631579 64.3513514,3.36842105 C64.3513514,3.41052632 64.5832432,3.51578947 64.7308108,3.36842105 M63.7610811,5.6 C63.9718919,5.22105263 63.5713514,5.24210526 63.5081081,5.28421053 C63.4448649,5.32631579 63.2762162,5.28421053 63.212973,5.45263158 C62.8545946,5.97894737 62.3697297,6.37894737 62.0535135,6.90526316 C62.2058041,6.67634218 62.5088323,6.60297992 62.7491892,6.73684211 C62.7491892,6.73684211 63.1708108,6.63157895 63.1075676,6.42105263 C62.8967568,5.70526316 63.5924324,6 63.8243243,5.53684211 M64.3513514,5.72631579 C64.3513514,5.72631579 64.3513514,5.6 64.4778378,5.51578947 C64.6043243,5.43157895 64.4778378,5.64210526 64.3513514,5.72631579 M61.4,5.03157895 L62.2643243,4.61052632 C61.6740541,4.33684211 61.652973,4.35789474 61.4,5.03157895 M61.5475676,6.63157895 L61.5475676,6.90526316 C61.5475676,6.94736842 61.6951351,6.90526316 61.7583784,6.90526316 C61.8216216,6.90526316 61.7583784,6.67368421 61.652973,6.63157895 C61.6252171,6.603289 61.587227,6.58734694 61.5475676,6.58734694 C61.5079081,6.58734694 61.469918,6.603289 61.4421622,6.63157895 M62.7491892,4.46315789 C62.7491892,4.46315789 62.5805405,4.73684211 62.7491892,4.84210526 C62.9178378,4.94736842 63.0654054,5.34736842 63.3816216,5.03157895 C63.5160785,5.05707817 63.6447,5.10703016 63.7610811,5.17894737 L64.0351351,5.17894737 L64.0351351,4.61052632 C64.0351351,4.27368421 64.0351351,4.21052632 63.7189189,4.27368421 L63.212973,4.27368421 C63.2551351,4.27368421 63.0654054,3.57894737 63.212973,3.51578947 C63.3605405,3.45263158 63.5291892,3.05263158 63.4448649,2.71578947 C63.3605405,2.37894737 63.5713514,2.29473684 63.6135135,2.08421053 C63.6556757,1.87368421 63.992973,2.08421053 63.74,1.81052632 C63.487027,1.53684211 63.5291892,1.95789474 63.4448649,1.97894737 C63.0021622,2.12631579 63.0021622,2.42105263 63.1286486,2.77894737 C63.1782883,2.87309478 63.1860069,2.98374579 63.1499181,3.0838572 C63.1138293,3.1839686 63.0372582,3.26431626 62.9389189,3.30526316 C62.9389189,3.30526316 62.7913514,3.47368421 62.8124324,3.51578947 C63.0443243,3.91578947 62.8124324,4.10526316 62.5594595,4.35789474" id="Shape"></path>
                <path d="M61.9059459,3.49473684 C62.2221622,3.49473684 62.2432432,3.49473684 62.0745946,3.78947368 C61.9059459,4.08421053 61.9481081,3.95789474 62.0745946,4.08421053 C62.2010811,4.21052632 62.2221622,4.23157895 62.2854054,4.08421053 C62.4282427,3.95737882 62.5493058,3.8080321 62.6437838,3.64210526 C62.6437838,3.47368421 62.8967568,3.26315789 62.8124324,3.05263158 C62.7281081,2.84210526 62.4751351,3.05263158 62.3064865,3.05263158 C62.2034398,2.98774954 62.0722358,2.98774954 61.9691892,3.05263158 C61.9691892,3.05263158 61.7162162,3.05263158 61.7372973,3.28421053 C61.7583784,3.51578947 61.7372973,3.45263158 61.9691892,3.47368421 L61.9059459,3.49473684 Z M58.2167568,3.85263158 C57.984023,3.81496717 57.7454246,3.85964399 57.5421622,3.97894737 L57.5421622,4.21052632 C57.5421622,4.27368421 58.2589189,4.06315789 58.2589189,3.91578947 L58.2167568,3.85263158 Z M59.4605405,6.82105263 C59.2308546,6.38880794 58.8977294,6.01997189 58.4908108,5.74736842 C58.3643243,5.74736842 58.28,5.45263158 58.4908108,5.36842105 C58.5523823,5.30347279 58.5523823,5.20179037 58.4908108,5.13684211 L58.2589189,5.13684211 C58.1956757,5.13684211 57.8583784,5.26315789 57.9216216,5.49473684 C57.9848649,5.72631579 57.9216216,6.27368421 57.4578378,6.50526316 C56.9940541,6.73684211 57.4578378,6.75789474 57.4578378,6.84210526 C57.4578378,6.92631579 57.8372973,6.84210526 57.8794595,6.58947368 C57.9216216,6.33684211 58.027027,6.42105263 58.1535135,6.46315789 C58.28,6.50526316 58.1535135,6.65263158 58.1535135,6.77894737 C57.9427027,7.01052632 57.6054054,7.09473684 57.5210811,7.49473684 C57.4367568,7.89473684 57.2891892,7.49473684 57.2048649,7.49473684 C57.1205405,7.49473684 56.9097297,6.67368421 56.4037838,6.63157895 C56.522505,6.23563605 56.5793894,5.82378075 56.5724324,5.41052632 C56.5724324,5.24210526 56.8675676,5.22105263 56.8675676,4.98947368 L56.8675676,4.73684211 C56.7577174,4.70280965 56.6401204,4.70280965 56.5302703,4.73684211 C56.4724667,4.74966973 56.4239746,4.78871262 56.3991607,4.84240356 C56.3743468,4.89609449 56.3760567,4.95827627 56.4037838,5.01052632 C56.4037838,5.11578947 56.5302703,5.28421053 56.4037838,5.34736842 C56.2772973,5.41052632 56.1086486,5.78947368 56.0454054,6.04210526 C56.023254,6.16186201 55.9448191,6.26368981 55.8345946,6.31578947 C55.527777,6.4212793 55.2867135,6.66201752 55.1810811,6.96842105 C55.1810811,6.96842105 54.9913514,6.96842105 54.8859459,7.11578947 C54.7805405,7.26315789 54.5908108,6.90526316 54.5486486,6.73684211 C54.5064865,6.56842105 54.5486486,6.52631579 54.7383784,6.46315789 L54.9913514,6.33684211 C55.0967568,6.33684211 55.3286486,6.23157895 55.2864865,6.06315789 C55.2685957,5.78753209 55.1197021,5.53710239 54.8859459,5.38947368 C54.839367,5.36684203 54.7849574,5.36684203 54.7383784,5.38947368 L54.7383784,5.64210526 C54.7383784,5.72631579 54.8437838,5.93684211 54.7383784,6.02105263 C54.632973,6.10526316 54.5275676,6.02105263 54.4854054,5.83157895 C54.4432432,5.64210526 54.4854054,5.49473684 54.2324324,5.47368421 C53.9794595,5.45263158 53.7897297,5.64210526 53.6210811,5.76842105 C53.4524324,5.89473684 53.6210811,6.04210526 53.6210811,6.18947368 C53.7961344,6.68363719 53.5804385,7.23112431 53.1151351,7.47368421 C52.8292384,7.56993126 52.5644623,7.72000675 52.3351351,7.91578947 C52.1875676,8.04210526 52.0821622,7.91578947 51.9978378,7.78947368 C51.9135135,7.66315789 51.8502703,7.32631579 52.1032432,7.15789474 L53.1783784,6.31578947 C53.1783784,6.31578947 53.5156757,6.31578947 53.4102703,6.04210526 C53.3048649,5.76842105 52.9675676,5.53684211 52.82,5.64210526 C52.6724324,5.74736842 52.292973,5.81052632 52.1875676,6.10526316 C52.0821622,6.4 51.9556757,6.52631579 51.6816216,6.48421053 C51.4075676,6.44210526 51.4708108,6.48421053 51.4918919,6.61052632 C51.512973,6.73684211 50.8805405,7.15789474 51.1967568,7.62105263 C51.2268829,7.67316229 51.2268829,7.73736403 51.1967568,7.78947368 C50.9451958,7.94488523 50.6847514,8.08547599 50.4167568,8.21052632 C50.4167568,8.21052632 50.1848649,8.21052632 50.227027,8.08421053 C50.2691892,7.95789474 50.0162162,7.51578947 50.4167568,7.30526316 C50.8172973,7.09473684 50.5432432,6.90526316 50.6064865,6.69473684 C50.6558163,6.63320711 50.6558163,6.54574026 50.6064865,6.48421053 C50.5414505,6.42272211 50.4396306,6.42272211 50.3745946,6.48421053 C50.1878585,6.78301121 49.834638,6.9341871 49.4891892,6.86315789 C49.1308108,6.86315789 48.8989189,7.17894737 48.6459459,7.41052632 C48.392973,7.64210526 48.6459459,7.53684211 48.6459459,7.57894737 C48.6459459,7.62105263 48.8567568,7.57894737 48.9621622,7.57894737 C49.0675676,7.57894737 49.3205405,7.89473684 49.2362162,8.02105263 C48.9724606,8.41102395 48.4886538,8.58902801 48.0345946,8.46315789 C48.0014325,8.48673245 47.959992,8.49558004 47.9200764,8.48760768 C47.8801608,8.47963533 47.8453156,8.4555512 47.8237838,8.42105263 C47.8237838,8.21052632 48.1189189,8.16842105 48.1610811,7.93684211 C48.2032432,7.70526316 47.8237838,7.64210526 47.8027027,7.38947368 C47.8772918,6.96821766 47.9829857,6.55304953 48.1189189,6.14736842 C47.8027027,6.14736842 47.612973,6.48421053 47.3178378,6.31578947 C47.0227027,6.14736842 47.0437838,6.8 46.9805405,6.82105263 C46.9172973,6.84210526 46.6643243,7.24210526 46.3481081,7.05263158 C46.0318919,6.86315789 45.5259459,6.71578947 45.2308108,7.26315789 C45.0674046,7.61291411 44.7595468,7.87424007 44.3875676,7.97894737 C43.9959063,8.07227963 43.6196525,8.22116016 43.2702703,8.42105263 C42.9540541,8.58947368 42.7221622,8.69473684 42.4481081,8.29473684 C42.1740541,7.89473684 42.0054054,8.14736842 41.9421622,8.52631579 C41.7945946,9.32631579 40.3610811,8.82105263 40.1291892,8.96842105 C39.8090048,9.26670101 39.4037602,9.45801268 38.9697297,9.51578947 C38.252973,9.51578947 34.7535135,11.0736842 33.9735135,11.3894737 C33.1935135,11.7052632 31.0643243,12.7157895 30.3897297,12.9473684 C29.7151351,13.1789474 29.7783784,13.3473684 29.42,13.4315789 C29.0616216,13.5157895 27.9443243,14.0842105 26.9535135,14.4842105 C26.2075245,14.8734746 25.4137689,15.1636538 24.5924324,15.3473684 C23.2323986,16.0920867 21.7454636,16.5775441 20.2075676,16.7789474 C20.6924324,16.7789474 20.7135135,16.7789474 20.2075676,16.7789474 L20.0810811,16.8421053 C19.6383784,17.1368421 19.1745946,17.3894737 18.7318919,17.6842105 L17.9097297,18.3368421 L16.6027027,19.3894737 C15.7594595,20.0631579 14.9021622,20.722807 14.0308108,21.3684211 C13.9854763,21.6066489 13.8395079,21.8137978 13.6302703,21.9368421 C13.1209344,22.2037957 12.67515,22.5771748 12.3232432,23.0315789 C12.2178378,23.2210526 12.1335135,23.4315789 11.9227027,23.4526316 C11.7118919,23.4736842 11.3535135,24.1263158 10.8475676,24.1263158 C10.3416216,24.1263158 10.2151351,24.7157895 9.77243243,24.8210526 C9.65389378,24.8462121 9.55313476,24.9236144 9.49837838,25.0315789 C9.34251429,25.4383265 9.0525273,25.7799009 8.67621622,26 C8.33891892,26.2526316 8.21243243,26.7789474 7.72756757,26.8631579 C7.62216216,26.8631579 7.72756757,27.0315789 7.58,27.0736842 C7.14934262,27.4442864 6.76054648,27.8607958 6.42054054,28.3157895 C6.02,28.7368421 5.72486486,29.2 5.36648649,29.6421053 C5.00810811,30.0842105 3.40594595,31.7473684 3.06864865,32.1684211 C2.617396,32.8235801 2.05355983,33.3937829 1.40324324,33.8526316 C1.17225389,33.9626654 1.00023887,34.1671299 0.931534392,34.413325 C0.862829918,34.6595201 0.904157412,34.9233604 1.04486486,35.1368421 C1.12043741,35.2665357 1.17052305,35.4094444 1.19243243,35.5578947 C1.16863076,36.3076139 1.54606853,37.0133522 2.18324324,37.4105263 C2.30688925,37.4870353 2.42023951,37.5790081 2.52054054,37.6842105 L2.9,37.6842105 C3.24690609,37.841386 3.61718271,37.9409413 3.99621622,37.9789474 L6.12540541,37.8947368 C6.4627027,37.8947368 6.88432432,37.6631579 7.17945946,37.8947368 C7.47459459,38.1263158 7.93837838,37.7263158 8.33891892,37.7263158 C8.80657905,37.7088296 9.27196989,37.6524947 9.73027027,37.5578947 C11.0365098,37.1164479 12.3173741,36.603388 13.567027,36.0210526 C13.8621622,35.8947368 14.1994595,36.0210526 14.4524324,35.7052632 C14.5031109,35.6700228 14.5704026,35.6700228 14.6210811,35.7052632 C15.0503852,35.5036215 15.4943559,35.334718 15.9491892,35.2 C17.2715622,35.0060238 18.5288227,34.500912 19.6172973,33.7263158 C20.6081081,33.1578947 21.5778378,32.5684211 22.5475676,31.9578947 C23.3738781,31.067914 24.3702037,30.3521003 25.4778378,29.8526316 C26.4365191,28.6691465 27.6754914,27.7429803 29.0827027,27.1578947 C29.7084024,26.6255256 30.4216259,26.2052916 31.1908108,25.9157895 C31.1908108,25.9157895 32.0762162,25.5578947 32.1394595,25.4105263 C32.2027027,25.2631579 34.2475676,24.3789474 34.9010811,23.7894737 C35.2172973,23.5157895 36.6508108,22.6947368 37.0091892,22.4842105 C37.3675676,22.2736842 38.6745946,21.5578947 39.1172973,21.3473684 C39.386587,21.2350492 39.6096121,21.0345975 39.7497297,20.7789474 C39.8762162,20.5052632 40.8248649,20.6105263 40.9091892,20.5052632 C41.2886486,19.9578947 42.0264865,19.9157895 42.4059459,19.3263158 C42.6040343,18.9485175 42.9909822,18.7070014 43.4178378,18.6947368 C43.7052298,18.7225076 43.9938558,18.6559914 44.24,18.5052632 C44.5140541,18.3789474 44.6616216,18.2736842 44.5140541,17.8947368 C44.3664865,17.5157895 44.8513514,17.3894737 45.1675676,17.6 C45.4837838,17.8105263 45.8843243,17.2210526 46.1372973,17.1157895 C46.3902703,17.0105263 46.2637838,16.9263158 46.1372973,16.9052632 C46.0108108,16.8842105 46.1372973,16.6315789 46.3059459,16.5473684 C47.079862,16.1650189 47.8752398,15.8276152 48.6881081,15.5368421 C48.92,15.3894737 49.1308108,15.2421053 49.1518919,14.9263158 C49.172973,14.6105263 49.3416216,14.7157895 49.447027,14.6315789 C49.5524324,14.5473684 51.5551351,13.8105263 52.1875676,13.0947368 C52.3772973,12.8421053 52.5881081,12.5473684 52.9464865,12.9473684 C53.1572973,12.6526316 53.6632432,12.9473684 53.7897297,12.5052632 C53.9045622,12.033358 54.2684731,11.6618622 54.7383784,11.5368421 C55.0113982,11.4641468 55.2790625,11.372701 55.5394595,11.2631579 C55.8767568,11.0736842 56.0664865,10.6315789 56.5302703,10.6736842 C56.6567568,10.6736842 56.7832432,10.5473684 56.8254054,10.3789474 C56.8675676,10.2105263 57.0362162,9.66315789 57.1205405,9.30526316 C57.2048649,8.94736842 57.247027,9.05263158 57.4156757,9.11578947 C57.5843243,9.17894737 57.6897297,9.11578947 57.6475676,9.41052632 C57.6054054,9.70526316 57.3524324,9.81052632 57.6475676,9.95789474 C57.9427027,10.1052632 58.0691892,9.95789474 58.1745946,9.72631579 C58.28,9.49473684 58.6172973,9.43157895 58.6383784,9.11578947 C58.6594595,8.8 58.6383784,8.84210526 58.7859459,8.8 C59.3551351,8.65263158 59.2708108,8.16842105 59.1443243,7.78947368 C59.0468825,7.56811728 59.0468825,7.31609324 59.1443243,7.09473684 C59.2191071,6.97326261 59.329508,6.8777109 59.4605405,6.82105263 L59.4605405,6.82105263 Z M59.5237838,6.31578947 C59.3762162,6.54736842 59.7345946,6.65263158 59.84,6.31578947 C59.9454054,5.97894737 60.092973,6.31578947 60.092973,6.31578947 C59.9920285,6.27247973 59.8777013,6.27247973 59.7767568,6.31578947 C59.4816216,6.31578947 59.5237838,6.50526316 59.5237838,6.50526316 L59.5237838,6.31578947 Z" id="Shape"></path>
                <path d="M60.1351351,6.69473684 C60.1414954,6.73660256 60.1414954,6.77918691 60.1351351,6.82105263 C60.2407917,7.05958953 60.1382614,7.33884015 59.9032432,7.45263158 C59.6291892,7.66315789 59.5659459,7.76842105 59.9032432,7.93684211 C60.2405405,8.10526316 59.9032432,8.08421053 60.0297297,8.16842105 C60.1562162,8.25263158 60.1983784,8.35789474 60.3459459,8.16842105 C60.4935135,7.97894737 60.7254054,8.02105263 60.7675676,7.74736842 C60.7995335,7.56640962 60.9635306,7.43902842 61.147027,7.45263158 C61.5054054,7.45263158 61.5897297,7.24210526 61.7583784,7.07368421 C61.6155258,7.15955096 61.4676986,7.23687975 61.3156757,7.30526316 L60.9994595,7.30526316 C60.9695808,6.97631936 60.962537,6.64570473 60.9783784,6.31578947 C60.9783784,6.04210526 61.1891892,6.10526316 61.2945946,6 C61.4,5.89473684 61.6318919,5.87368421 61.652973,5.64210526 C61.6740541,5.41052632 61.652973,5.45263158 61.652973,5.38947368 C61.652973,5.32631579 61.4421622,5.38947368 61.4210811,5.38947368 C61.1891892,4.90526316 60.5989189,5.38947368 60.5989189,5.38947368 C60.6177204,5.20331189 60.5274386,5.02299198 60.367027,4.92631579 C60.2405405,5.34736842 60.0086486,5.70526316 60.367027,6.14736842 C60.367027,6.14736842 60.367027,6.56842105 60.1351351,6.56842105" id="Path"></path>
            </g>
            <path d="M138.824979,75.2134571 C138.44031,74.288763 138.216465,73.3077307 138.162695,72.3109049 C137.543074,71.0590253 137.049382,69.7512554 136.688578,68.4060325 C129.873459,61.8700696 126.818406,52.7030162 126.30567,42.2204176 C126.159176,42.3440956 126.100623,42.5403156 126.156122,42.7215777 C126.166976,42.7626673 126.166976,42.8057782 126.156122,42.8468677 L126.006574,42.8468677 C125.998276,42.7356465 125.998276,42.6239823 126.006574,42.512761 C126.006574,42.0742459 125.878389,40.2575406 125.750205,39.7981439 C125.622021,39.3387471 125.493837,38.1693735 125.451109,37.8561485 C125.393844,36.9170918 125.206998,35.9899071 124.895645,35.099768 C125.130649,34.7865429 124.895645,34.4941995 124.895645,34.2018561 C124.803425,33.0882974 124.452717,32.0099371 123.870173,31.0487239 C123.656562,30.6469822 123.421225,30.2566388 123.16516,29.8793503 C123.16516,29.774942 122.887428,29.8793503 122.866064,29.712297 C122.8447,29.5452436 121.370583,27.9582367 121.285127,27.6241299 C121.199671,27.2900232 120.751027,27.4361949 120.708299,27.1020882 C120.708299,27.1020882 120.580115,26.8723898 120.494659,27.1020882 C120.409203,27.3317865 120.131471,27.1020882 120.110107,27.3735499 C120.005655,27.9812908 119.764895,28.5589066 119.405094,29.0649652 C119.191454,29.4408353 118.507806,30.8816705 118.336894,31.1531323 C118.165982,31.424594 116.990961,34.6821346 116.670501,35.6426914 C116.670501,35.6426914 114.5341,43.7238979 114.662284,43.7865429 C114.790468,43.8491879 114.21364,47.962877 114.192276,48.7981439 C114.174339,49.2556881 114.10993,49.7103581 114,50.1554524 L114,56.0440835 C114.296531,57.1615059 114.426057,58.3149912 114.384552,59.4686775 C114.445681,60.0568707 114.56736,60.6375364 114.74774,61.2018561 C114.74774,61.4106729 115.025472,61.5777262 115.004108,61.8491879 C115.222981,62.5295642 115.494371,63.1927218 115.815941,63.8329466 C116.008217,64.25058 116.905505,65.4408353 117.012325,65.649652 C117.793182,66.657248 118.6578,67.6001245 119.597371,68.4686775 C119.719976,68.5802614 119.82765,68.7065535 119.917831,68.8445476 C120.389709,69.1477472 120.839439,69.4826622 121.263763,69.8468677 C126.09203,74.0232019 131.198028,77.9907193 136.389482,81.7285383 C136.886611,81.7860777 137.379132,81.8767764 137.863599,82 C138.54897,81.7074551 139.26551,81.4903426 140,81.3526682 L140,80.4547564 C139.194997,78.8212987 138.792578,77.0262668 138.824979,75.2134571 L138.824979,75.2134571 Z" id="Path"></path>
            <g id="Group" transform="translate(120.000000, 26.000000)">
                <path d="M23.7083333,29.6573913 L23.7083333,29.1773913 C23.5678009,28.9617431 23.5155754,28.7001613 23.5625,28.4469565 C23.6398478,28.0331611 23.6398478,27.6085781 23.5625,27.1947826 C23.4163193,26.5093895 23.3602882,25.8077826 23.3958333,25.1078261 C23.4309553,24.5936446 23.4309553,24.0776597 23.3958333,23.5634783 C23.3180427,23.2411649 23.3180427,22.9049221 23.3958333,22.5826087 C23.3958333,22.2695652 23.2291667,21.893913 23.3958333,21.56 C23.2291667,21.0173913 23.3958333,20.453913 23.3958333,19.9321739 C23.3384553,19.7132754 23.3384553,19.4832463 23.3958333,19.2643478 C23.4796683,18.942784 23.4796683,18.605042 23.3958333,18.2834783 C23.3778552,17.9637316 23.3778552,17.6432249 23.3958333,17.3234783 C23.3026428,16.7156786 23.2539019,16.1018711 23.25,15.4869565 L23.25,14.1095652 C23.1608415,13.5227336 23.1259713,12.9289079 23.1458333,12.3356522 C23.0497549,11.4129378 23.0497549,10.4827144 23.1458333,9.56 L23.0208333,8.62086957 C22.9228963,7.65417937 22.7768816,6.69298492 22.5833333,5.74086957 C22.4583333,5.74086957 22.1666667,5.57391304 21.9375,5.44869565 C21.7083333,5.32347826 21.9375,5.6573913 21.7708333,5.44869565 C21.6041667,5.24 21.3333333,3.61217391 21.1041667,3.82086957 C20.875,4.02956522 20.9583333,3.65391304 20.8958333,3.46608696 C20.8333333,3.27826087 20.3958333,3.46608696 20.4166667,3.46608696 C20.4375,3.46608696 20.125,3.2573913 20.4166667,3.11130435 C20.1458333,2.96521739 20.4166667,2.73565217 20.4166667,2.54782609 C20.4166667,2.36 20.1041667,2.25565217 19.9583333,2.10956522 C20.125,1.96347826 19.9583333,1.88 19.9583333,1.75478261 C19.9583333,1.62956522 19.9583333,1.92173913 19.6666667,1.75478261 C19.375,1.58782609 19.2083333,1.00347826 18.5833333,0.773913043 C18.3486481,0.624285584 18.1257715,0.456837442 17.9166667,0.273043478 L17.6458333,0.273043478 C17.5625,0.273043478 16.7916667,0.96173913 16.5208333,1.23304348 C16.25,1.50434783 16.0208333,1.23304348 15.9583333,1.10782609 C15.7813626,0.994147704 15.561232,0.970749673 15.3643877,1.04469467 C15.1675433,1.11863967 15.0170498,1.28126348 14.9583333,1.48347826 C14.9583333,1.65043478 14.7708333,1.75478261 14.7291667,1.9426087 C14.6875,2.13043478 14.5833333,2.25565217 14.25,2.17217391 C14.0533355,2.1372164 13.850875,2.18228587 13.6875,2.2973913 C13.431168,2.4761059 13.2118456,2.70289692 13.0416667,2.96521739 C12.7708333,3.27826087 12.3125,3.54956522 12.5625,4.11304348 C12.3960357,4.76944321 12.1438604,5.40097777 11.8125,5.99130435 C11.6666667,6.22086957 11.1666667,7.0973913 11.0208333,7.26434783 C10.8778184,7.49190865 10.7657202,7.73754982 10.6875,7.99478261 C10.4791667,8.49565217 9.3125,11.0834783 8.89583333,11.8556522 C8.47916667,12.6278261 7.625,15.0695652 7.375,15.7165217 C7.375,15.946087 7.375,16.3008696 7.1875,16.426087 C7,16.5513043 6.97916667,16.76 7.02083333,16.9686957 C7.03141805,17.0097614 7.03141805,17.0528473 7.02083333,17.093913 L6.875,17.093913 C6.74483946,17.5560261 6.58477863,18.0091586 6.39583333,18.4504348 C5.41666667,22.2904348 4.125,26.026087 3.375,30.0121739 C2.83333333,32.8295652 2.08333333,35.5843478 1.29166667,38.36 C1.27284718,39.1538378 1.17514268,39.9438242 1,40.7182609 C1.0423116,41.5343143 1.00042296,42.3525633 0.875,43.16 C1.01244262,43.3377029 1.07253051,43.5634243 1.04166667,43.786087 L1.04166667,47.4173913 C1.04166667,47.6052174 0.666666667,48.106087 0.625,48.3982609 C0.550374707,49.1755982 0.550374707,49.9583149 0.625,50.7356522 C0.604943332,51.0062549 0.548892099,51.2729613 0.458333333,51.5286957 C0.22925814,52.1424327 0.116222011,52.7935208 0.125,53.4486957 C0.247294319,54.0949392 0.289280076,54.75386 0.25,55.4104348 C0.229179551,56.482823 0.263948563,57.555571 0.354166667,58.6243478 C0.166666667,58.8956522 0.354166667,59.146087 0.354166667,59.3965217 C0.25,60.0643478 0.354166667,62.2347826 0.208333333,63.4034783 L0.208333333,68.6626087 C0.0901372805,69.1211762 0.0901372805,69.6023021 0.208333333,70.0608696 C0.275426826,71.1481942 0.22653912,72.2395864 0.0625,73.3165217 L0.0625,76.613913 C0.3125,77.9495652 0.229166667,79.3269565 0.520833333,80.6626087 C0.520833333,80.8295652 0.645833333,82.6243478 0.729166667,82.7495652 C0.8125,82.8747826 0.854166667,83.4591304 0.979166667,83.813913 C1.34000108,84.9021934 1.63908999,86.0100502 1.875,87.1321739 C2.21360719,87.5760154 2.42920862,88.101558 2.5,88.6556522 C2.58140508,89.1335855 2.79014214,89.580627 3.10416667,89.9495652 C3.10416667,89.9495652 3.22916667,90.053913 3.22916667,90.1582609 C3.22916667,90.9304348 3.95833333,91.3686957 4.16666667,92.0573913 L4.3125,92.1826087 C4.66917163,92.4191468 4.96820822,92.7329681 5.1875,93.1008696 L5.33333333,93.1008696 C5.375,93.1008696 5.33333333,92.9756522 5.33333333,92.9130435 L5.33333333,92.7252174 C5.33333333,92.7043478 5.33333333,92.8295652 5.4375,92.8921739 C5.54166667,92.9547826 5.4375,93.0382609 5.4375,93.0591304 C5.4375,93.08 5.4375,92.6626087 5.22916667,92.5165217 C5.02083333,92.3704348 5.22916667,92.3495652 5.22916667,92.3495652 C5.22916667,92.3495652 5.45833333,92.4956522 5.41666667,92.3495652 C5.37942254,92.1609055 5.31632547,91.978308 5.22916667,91.8069565 C5.07269702,91.6030472 4.98513117,91.3545125 4.97916667,91.0973913 C4.97916667,90.8886957 4.79166667,90.826087 4.77083333,90.6382609 C4.81507759,90.4742458 4.81507759,90.3014064 4.77083333,90.1373913 C4.62491226,89.915581 4.55877955,89.6505901 4.58333333,89.386087 C4.72916667,89.4904348 4.58333333,89.6365217 4.75,89.72 C4.83977582,89.8118067 4.93736718,89.8956019 5.04166667,89.9704348 C5.04166667,89.9704348 5.04166667,90.1582609 5.14583333,90.1165217 C5.25,90.0747826 5.14583333,89.9913043 5.14583333,89.9286957 C5.14583333,89.866087 5.14583333,89.72 5.29166667,89.72 L5.5,89.72 C5.5,90.1582609 5.77083333,90.4295652 5.9375,90.7634783 C6.12715667,91.2815428 6.41747717,91.7567941 6.79166667,92.1617391 C6.79166667,91.9113043 6.79166667,91.64 6.66666667,91.3269565 C6.89583333,91.5147826 6.95833333,91.7652174 7.16666667,91.9321739 C7.16666667,91.3269565 6.97916667,90.7008696 6.89583333,90.053913 C7.14385055,90.293777 7.2799125,90.6269513 7.27083333,90.9721739 C7.27083333,90.9721739 7.27083333,91.1391304 7.4375,91.1182609 C7.60416667,91.0973913 7.5625,91.1182609 7.4375,90.9721739 C7.3125,90.826087 7.5625,90.5547826 7.72916667,90.3669565 C7.72916667,90.7634783 8.02083333,91.0556522 8.04166667,91.4104348 C8.0625,91.7652174 8.04166667,91.5147826 8.16666667,91.4104348 C8.23570226,91.4104348 8.29166667,91.354373 8.29166667,91.2852174 L8.29166667,91.1391304 L8.29166667,90.9513043 L8.29166667,91.1182609 C8.31482598,91.1532356 8.35393655,91.1742617 8.39583333,91.1742617 C8.43773011,91.1742617 8.47684068,91.1532356 8.5,91.1182609 C8.60416667,91.013913 8.5,90.9721739 8.5,90.9513043 L8.5,90.1791304 C8.5,89.9286957 8.29166667,89.866087 8.29166667,89.6573913 C8.29166667,89.4486957 8.29166667,89.3026087 8.5,89.2191304 C8.70833333,89.1356522 8.625,89.4069565 8.75,89.4486957 C8.75791706,89.3793565 8.75791706,89.3093392 8.75,89.24 C8.70542303,89.0255969 8.74258384,88.8022443 8.85416667,88.613913 C8.85416667,88.613913 9.08333333,88.8643478 9.125,89.1356522 L9.22916667,89.866087 L9.35416667,90.7008696 C9.47989619,90.4934581 9.5448691,90.2548098 9.54166667,90.0121739 C9.83333333,90.0121739 9.70833333,89.7408696 9.6875,89.5530435 C9.67355643,89.4421773 9.67355643,89.3299966 9.6875,89.2191304 C9.6875,89.2191304 9.6875,89.0313043 9.83333333,89.0104348 C9.97916667,88.9895652 9.83333333,89.1147826 9.9375,89.1982609 C10.0416667,89.2817391 9.9375,89.3652174 10.0833333,89.3652174 C10.2291667,89.3652174 10.2291667,89.1982609 10.0833333,89.1147826 C9.97149072,88.951263 9.97149072,88.7356935 10.0833333,88.5721739 L10.0833333,88.133913 L10.0833333,87.9878261 C10.1377063,87.971587 10.195627,87.971587 10.25,87.9878261 C10.3446007,88.037318 10.407446,88.1317499 10.4166667,88.2382609 C10.418314,88.446259 10.4607869,88.6519015 10.5416667,88.8434783 C10.6010401,88.7083589 10.6497992,88.568805 10.6875,88.426087 C10.6875,88.2382609 10.5,88.0086957 10.6875,87.8417391 C10.875,87.6747826 10.6875,87.4243478 10.8541667,87.2782609 C11.0208333,87.1321739 10.8541667,87.1321739 10.8541667,87.1530435 L10.8541667,87.32 C10.8541667,87.3826087 10.8541667,87.32 10.9791667,87.32 C11.1041667,87.32 10.8333333,87.0069565 10.9791667,86.84 C10.9791667,87.1321739 10.9791667,87.4034783 11.1041667,87.653913 C11.1041667,87.4452174 11.3333333,87.2991304 11.2708333,87.0904348 C11.2083333,86.8817391 11.6041667,86.9443478 11.4791667,86.693913 C11.5333411,86.6763636 11.5916589,86.6763636 11.6458333,86.693913 L11.8125,86.693913 C11.8541667,86.693913 11.8125,86.5686957 11.9375,86.5269565 C12.0625,86.4852174 11.9375,86.3391304 12.0833333,86.4017391 C12.3125,86.9026087 12.0833333,87.466087 12.2708333,88.0086957 C12.2708333,87.7373913 12.625,87.6330435 12.7083333,87.3617391 C12.7449035,87.1897553 12.7449035,87.0119839 12.7083333,86.84 C12.7047857,86.7288775 12.7505583,86.6218888 12.8333333,86.5478261 L12.8333333,86.7773913 C12.8333333,86.8608696 13.0625,87.0486957 13.0416667,87.2365217 C13.0208333,87.4243478 13.0416667,87.4243478 13.1458333,87.3826087 C13.25,87.3408696 13.1458333,87.2573913 13.1458333,87.2156522 C13.1458333,87.173913 13.1458333,87.2156522 13.2708333,87.2156522 C13.3958333,87.2156522 13.2708333,87.3826087 13.2708333,87.3617391 L13.2708333,87.1947826 C13.2708333,87.0278261 13.2708333,86.9234783 13.5208333,86.4434783 L13.75,85.9843478 L13.75,85.7965217 C13.75,85.8173913 14,85.9217391 13.9583333,86.0052174 C13.8963003,86.1950438 13.8963003,86.3997388 13.9583333,86.5895652 C13.9583333,86.7565217 13.75,86.693913 13.7083333,86.84 C13.662863,86.9393771 13.662863,87.0536664 13.7083333,87.1530435 C13.7083333,87.1530435 13.7083333,87.4243478 13.8125,87.4034783 C13.9166667,87.3826087 13.8125,87.2365217 13.8125,87.1530435 C13.8015327,87.0687155 13.842741,86.9861555 13.9166667,86.9443478 C14.1458333,86.9443478 14.1458333,86.693913 14.1041667,86.4852174 C14.0625,86.2765217 14.1041667,86.1304348 14.4166667,86.0052174 C14.7291667,85.88 14.4166667,85.88 14.4166667,86.0052174 C14.3999534,86.318037 14.3999534,86.6315282 14.4166667,86.9443478 L14.5416667,86.9443478 C14.5489268,86.861028 14.5489268,86.7772329 14.5416667,86.693913 C14.5416667,86.3182609 14.7916667,85.9843478 14.8125,85.6086957 C14.8333333,85.2330435 14.8125,85.4417391 14.9583333,85.4417391 C15.1041667,85.4417391 15.2291667,85.4417391 15.1458333,85.2121739 C15.0832443,85.1248734 15.0832443,85.0073005 15.1458333,84.92 C15.2916667,84.92 15.6458333,83.9808696 15.8541667,83.7513043 C16.1720338,83.1811861 16.4303453,82.5797422 16.625,81.9565217 C16.625,81.706087 16.9375,80.5582609 17.1666667,80.4330435 C17.3958333,80.3078261 17.5833333,79.7026087 17.7083333,79.3478261 C18.130006,78.6552995 18.4790835,77.9209618 18.75,77.1565217 C18.875,76.2591304 19.2916667,73.9008696 19.2916667,73.6295652 C19.2916667,72.5652174 19.6041667,71.5426087 19.6666667,70.4991304 C19.6666667,70.1652174 20.3125,66.3252174 20.2916667,66.0956522 C20.2708333,65.866087 20.8333333,61.1078261 20.8958333,60.773913 C20.9583333,60.44 21.1666667,59.1252174 21.1666667,58.6869565 C21.193153,57.7523106 21.3117851,56.8225747 21.5208333,55.9113043 C21.5208333,55.9113043 21.8125,52.4678261 21.8333333,52.3217391 C21.8541667,52.1756522 22.2708333,48.586087 22.3125,47.48 C22.5642091,46.5703559 22.6696968,45.6263598 22.625,44.6834783 C22.7139039,43.9916033 22.748732,43.2938296 22.7291667,42.5965217 C23.0021376,41.4634123 23.0935562,40.2940372 23,39.1321739 C23,39.1321739 23.125,37.5043478 23.1875,36.7947826 C23.1875,36.4817391 23.2916667,34.04 23.3541667,33.5182609 C23.382935,32.8159781 23.4735649,32.1176127 23.625,31.4313043 C23.6050896,30.8387171 23.6329579,30.2454867 23.7083333,29.6573913 L23.7083333,29.6573913 Z" id="Path"></path>
                <path d="M12.5,86.7773913 L12.5,86.6521739 C12.4835783,86.5334367 12.5534532,86.4196926 12.6666667,86.3808696 C12.6666667,86.3808696 12.6666667,86.6521739 12.5625,86.6730435 M11.4166667,86.2765217 C11.408967,86.2211368 11.408967,86.1649501 11.4166667,86.1095652 L11.4166667,86.0052174 C11.4464388,86.0568739 11.4464388,86.1205174 11.4166667,86.1721739 M9.29166667,88.28 L9.1875,88.28 C9.1875,88.1547826 9.1875,88.1130435 9.3125,88.0295652 C9.4375,87.946087 9.3125,88.1965217 9.3125,88.2173913" id="Shape"></path>
            </g>
            <path d="M160.434886,62.7334559 C159.41748,62.3899286 158.43933,61.9495717 157.515391,61.4191176 C157.345252,61.4336332 157.174085,61.4336332 157.003946,61.4191176 C155.712033,61.1995415 154.452743,60.8329239 153.253354,60.3272059 L144.068666,56.5257353 C143.338915,56.4310701 142.623577,56.2545918 141.937648,56 L141,57.7996324 C141.250933,58.2022993 141.471683,58.6212267 141.660616,59.0533088 C142.192925,59.3488905 142.692662,59.6943682 143.152328,60.0845588 C145.785779,61.7175172 148.567058,63.1250218 151.463299,64.2904412 C153.42845,65.1673639 155.485611,65.8451339 157.600631,66.3125 C158.239937,66.4338235 158.879242,66.5551471 159.497238,66.6360294 C159.625099,66.7775735 159.944751,66.6360294 160.136543,66.8584559 C160.212585,66.9313128 160.316166,66.972303 160.42423,66.972303 C160.532295,66.972303 160.635876,66.9313128 160.711918,66.8584559 L161.820047,66.8584559 L162.459353,67 C162.459353,67 162.651144,66.8584559 162.757695,66.8382353 C163.968846,66.9251857 165.168291,66.562728 166.103394,65.8272059 C167.190213,64.6139706 167.786898,64.3106618 168,63.6433824 C165.437802,63.9671187 162.830917,63.6535646 160.434886,62.7334559 L160.434886,62.7334559 Z" id="Path"></path>
            <path d="M168.321392,5.80479635 C167.482039,6.32311315 166.461864,6.43103318 165.537359,6.09930747 C165.209826,5.95205191 164.984647,6.20449001 164.718526,6.26759954 C163.449335,6.54107415 162.139202,6.64625669 161.320368,7.95052023 C161.154916,8.13382106 160.952239,8.27746109 160.726714,8.3712504 C159.73206,8.86805591 158.857854,9.58674588 158.167861,10.4749013 C157.389969,11.7581283 156.386899,12.8520267 155.711361,14.2614728 C154.985449,15.8871041 154.363187,17.55953 153.848516,19.2681619 C153.364454,20.3536508 153.228263,21.5690448 153.45957,22.7391858 C153.178765,25.1247061 153.373792,27.5440072 154.032753,29.8495257 C154.257278,30.7711827 154.367331,31.7183468 154.360287,32.6684179 L154.237462,32.6684179 C154.043442,32.4954523 153.901421,32.2692366 153.828045,32.0162861 C153.282131,30.3263896 152.938423,28.5744871 152.804504,26.799232 C152.610769,25.2650734 152.535474,23.7175661 152.579324,22.1712001 C152.642662,20.2819411 153.12582,18.4326226 153.991812,16.7648174 C154.44217,14.3876919 156.16172,12.7468442 157.123849,10.6642298 C158.720573,9.38100282 159.989765,7.67704562 161.729785,6.45692812 C162.200614,6.14138049 162.876151,6.35174557 163.162743,5.69961381 C162.855681,5.4471757 162.507677,4.94229949 162.241556,5.00540902 C160.87001,5.27888363 159.293756,5.00540902 158.331627,6.56211066 C158.208802,6.77247575 158.188332,7.00387734 157.942682,7.1511329 C156.775821,8.02403179 155.788008,9.12492592 155.035824,10.3907552 C153.91518,12.1212962 153.020466,13.9955351 152.374616,15.96543 C151.869122,17.7402437 151.472572,19.5459239 151.187308,21.3718127 C151.044012,21.9818715 151.187308,22.3394921 151.064483,22.8233318 C150.956643,23.3079287 150.956643,23.8112906 151.064483,24.2958874 C151.371546,25.7474065 151.535312,27.2199622 151.821904,28.6714812 C152.317019,31.0585124 153.108196,33.370376 154.176049,35.5504196 C154.360287,35.9501132 154.176049,36.3918799 154.524053,36.7705371 C154.872057,37.1491942 155.17912,37.4437054 155.056295,37.9065085 C154.93347,38.3693117 155.731832,38.2220562 155.649949,38.8741879 C155.568066,39.5263197 156.223132,39.9260134 156.448311,40.5150356 C158.771027,44.5672433 160.580292,48.9078745 161.832139,53.4314519 C162.20167,55.0991373 162.441255,56.7944389 162.548618,58.5012505 C161.873081,58.7326521 162.773797,59.4058204 162.262027,59.6582585 C161.750256,59.9106966 161.832139,60.5838649 161.279427,60.6680109 C160.010235,60.836303 158.88434,61.6146538 157.533265,61.2991062 C156.265194,61.0840438 155.027662,60.7095901 153.848516,60.1841712 L150,58.4591775 L150.798362,59.3427109 C153.172979,61.7829459 155.752303,64.0128158 158.249744,66.3057952 C158.822927,66.4320143 159.37564,66.5371968 159.928352,66.6213428 C160.051177,66.7685984 160.35824,66.6213428 160.542477,66.8527444 C160.615524,66.9285412 160.715025,66.9711854 160.818833,66.9711854 C160.922642,66.9711854 161.022142,66.9285412 161.095189,66.8527444 L162.159672,66.8527444 L162.773797,67 C162.773797,67 162.958035,66.8527444 163.060389,66.8317079 C164.223836,66.9221668 165.376038,66.5450837 166.274309,65.7798825 C167.359263,64.475619 167.932446,64.2021444 168.116684,63.44483 C168.307318,62.3102406 168.307318,61.1504686 168.116684,60.0158791 C167.851914,57.1536933 167.275115,54.3311287 166.397134,51.6012757 C165.823951,49.7079899 165.148414,47.8567771 164.350051,46.0476374 C163.83828,44.8275199 162.507677,41.0830213 161.954964,39.9049769 C161.564568,39.095801 161.249287,38.2506001 161.013306,37.3805958 C160.612471,36.4578001 160.270567,35.5091481 159.989765,34.5406672 C159.881919,34.0763391 159.745165,33.6196081 159.580348,33.1732941 C158.668823,30.4729676 158.402037,27.587096 158.802456,24.7586906 C159.182315,22.4562065 159.871245,20.2190264 160.849539,18.1111539 C161.739837,15.817523 163.142269,13.7710387 164.943705,12.1367855 C164.943705,11.4005076 165.905834,11.4846537 166.008188,10.7694124 C166.110542,10.0541711 167.052201,10.7694124 167.236438,10.0120981 C167.454932,9.40457813 167.765862,8.83653995 168.157625,8.32917739 C169.078813,7.76119165 169.303992,6.62522019 170,5.80479635 C169.472169,5.53105202 168.849223,5.53105202 168.321392,5.80479635 L168.321392,5.80479635 Z" id="Path"></path>
        </g>
    </g>
</svg>