<?xml version="1.0" encoding="UTF-8"?>
<svg width="400px" height="300px" viewBox="0 0 400 300" version="1.1" xmlns="http://www.w3.org/2000/svg" xmlns:xlink="http://www.w3.org/1999/xlink">
    <!-- Generator: Sketch 57.1 (83088) - https://sketch.com -->
    <title>Artboard Copy 4</title>
    <desc>Created with Sketch.</desc>
    <defs>
        <polygon id="path-1" points="0.0316549977 21.8265328 0.0316549977 0.4465907 14.4193791 0.4465907 14.4193791 21.8265328"></polygon>
    </defs>
    <g id="Artboard-Copy-4" stroke="none" stroke-width="1" fill="none" fill-rule="evenodd">
        <g id="foto" transform="translate(127.000000, 74.000000)">
            <g id="Group-3" transform="translate(0.000000, 121.000000)">
                <g id="Fill-1-Clipped">
                    <mask id="mask-2" fill="white">
                        <use xlink:href="#path-1"></use>
                    </mask>
                    <g id="path-1"></g>
                    <path d="M2.87163587,4.29510564 C2.87163587,1.70749123 2.60573389,1.10315738 0,0.919820144 L0,0.4465907 L14.1149635,0.4465907 C14.1207669,1.55235972 14.2837902,3.68136988 14.4193791,5.40296398 L13.8738579,5.50168402 C13.5103531,3.83336742 13.1146656,2.97361503 12.6155718,2.39226363 C12.0837678,1.71166985 11.2860619,1.24836465 8.64392471,1.24836465 L6.47080912,1.24836465 C5.54067977,1.24836465 5.4610147,1.32149061 5.4610147,2.25071267 L5.4610147,10.4930533 L8.78848255,10.4930533 C11.7951797,10.4930533 12.1370537,10.1530176 12.5986891,7.91013984 L13.1357689,7.91013984 L13.1357689,14.3723856 L12.5986891,14.3723856 C12.1370537,11.8296914 11.7951797,11.4891334 8.78848255,11.4891334 L5.4610147,11.4891334 L5.4610147,17.9874198 C5.4610147,20.5755566 5.72849943,21.1788458 8.85179254,21.3600937 L8.85179254,21.8265328 L0,21.8265328 L0,21.3600937 C2.60573389,21.1788458 2.87163587,20.5755566 2.87163587,17.9874198 L2.87163587,4.29510564" id="Fill-1" fill="#000000" fill-rule="nonzero" mask="url(#mask-2)"></path>
                </g>
            </g>
            <path d="M22.1325346,128.737231 C19.7369585,128.737231 18.0149309,131.064527 18.0149309,134.691305 C18.0149309,139.051636 19.8647005,142.262769 22.9598158,142.262769 C25.2597236,142.262769 27.0547466,140.648532 27.0547466,135.876235 C27.0547466,132.16801 25.4366821,128.737231 22.1679263,128.737231 L22.1325346,128.737231 Z M22.561659,128 C26.9463594,128 30,131.261052 30,135.233062 C30,140.383697 26.033364,143 22.5423041,143 C17.8230415,143 15,139.44889 15,135.812653 C15,130.445526 19.4400001,128 22.5268202,128 L22.561659,128 L22.561659,128 Z" id="Fill-4" fill="#000000" fill-rule="nonzero"></path>
            <path d="M32.3428068,129.517338 L30.1413946,129.517338 L30,129.181578 L30.9230362,128.329508 L32.3428068,128.329508 L32.3428068,126.401528 L34.3514563,124 L34.7364518,124.106641 L34.7364518,128.329508 L38.4799647,128.329508 C38.7595763,128.695888 38.6594881,129.229091 38.2215357,129.517338 L34.7364518,129.517338 L34.7364518,138.089247 C34.7364518,140.870881 35.8649602,141.418866 36.7371579,141.418866 C37.6072374,141.418866 38.2850838,141.144874 38.7839363,140.913115 L39,141.42045 L36.5428066,142.670575 C36.0884377,142.927674 35.7362754,143 35.4767872,143 C33.3812885,143 32.3428068,141.653265 32.3428068,139.126618 L32.3428068,129.517338" id="Fill-5" fill="#000000" fill-rule="nonzero"></path>
            <path d="M46.1327976,128.737231 C43.7371332,128.737231 42.014489,131.064527 42.014489,134.691305 C42.014489,139.051636 43.8648799,142.262769 46.9595561,142.262769 C49.2601018,142.262769 51.055191,140.648532 51.055191,135.876235 C51.055191,132.16801 49.4365137,128.737231 46.1676375,128.737231 L46.1327976,128.737231 Z M46.5619378,128 C50.9467998,128 54,131.261052 54,135.233062 C54,140.383697 50.0332178,143 46.5420292,143 C41.8231457,143 39,139.44889 39,135.812653 C39,130.445526 43.4401638,128 46.5270977,128 L46.5619378,128 L46.5619378,128 Z" id="Fill-6" fill="#000000" fill-rule="nonzero"></path>
            <path d="M61.1127121,128.704695 C59.7534787,128.704695 58.4575136,130.115177 58.4575136,132.783964 C58.4575136,135.726012 59.6565018,137.742466 61.6100433,137.742466 C62.943347,137.742466 64.2730206,136.527249 64.2730206,133.636471 C64.2730206,130.77351 63.1258919,128.704695 61.1448649,128.704695 L61.1127121,128.704695 Z M61.5078804,143.237126 C60.2414752,143.237126 59.411207,143.448207 58.7479259,143.89655 C57.8932841,144.501432 57.3477237,145.450479 57.3477237,146.615517 C57.3477237,148.905232 59.294005,150.646789 61.9642425,150.646789 C65.2453834,150.646789 66.6792942,148.772692 66.6792942,146.388073 C66.6792942,145.120494 66.022755,144.165447 65.0405389,143.730194 C64.1397421,143.305304 63.0854417,143.237126 61.5400332,143.237126 L61.5078804,143.237126 Z M61.5421076,128 C62.5642552,128 63.5739566,128.338166 64.4695676,128.919594 C66.1607008,128.7936 67.5344549,128.590155 68.8366431,128.389437 L69,128.638698 C68.692474,129.157402 68.0696433,129.883914 67.5754237,130.223172 L65.7634583,130.140266 C66.3966608,130.837871 66.7747154,131.891641 66.7747154,132.929594 C66.7747154,136.653243 63.6968634,138.447707 61.1676831,138.447707 C60.9794337,138.447707 60.610195,138.447707 59.971288,138.384983 C59.4220975,138.600427 58.5658998,139.206945 58.5658998,139.809645 C58.5658998,140.542703 59.3629779,141.178674 60.7828868,141.178674 C61.7433218,141.178674 62.9589048,141.082132 64.1278144,141.082132 C65.9294082,141.082132 68.6157222,141.711013 68.6157222,145.094314 C68.6157222,148.471615 64.9337087,152 60.6397549,152 C56.9961174,152 55.0830261,149.840644 55.001607,147.771829 C54.97464,146.820054 55.2894263,146.113722 55.7691252,145.558475 C56.2954977,144.944321 57.7071089,143.862188 58.6276123,143.168947 C57.4887811,142.868415 56.5522013,142.009363 56.1684421,141.282851 C55.8966992,140.764692 55.8272076,140.29235 55.8593604,139.966729 C57.1672532,139.558202 58.5155961,138.699695 59.0450801,138.10954 C57.19422,137.452298 55.806464,135.724922 55.806464,133.624472 C55.806464,129.766647 59.0009996,128 61.5089176,128 L61.5421076,128 L61.5421076,128 Z" id="Fill-7" fill="#000000" fill-rule="nonzero"></path>
            <path d="M71.3438216,132.495342 C71.3438216,130.300939 71.1455628,130.093758 69.1657757,129.812163 L69.1657757,129.401549 C70.7344841,129.157964 72.2023827,128.752704 73.875261,128 L73.875261,131.712659 L73.9486279,131.712659 C74.7842269,130.25008 76.4621455,128.123131 78.1372638,128.123131 C79.2338476,128.123131 80,129.038046 80,129.745244 C80,130.297726 79.5833206,130.928905 78.9263785,131.230843 C78.5332213,131.399479 78.2442341,131.357186 78.0655771,131.188015 C77.5408075,130.718512 77.1078865,130.479211 76.4923883,130.479211 C75.7396773,130.479211 74.8122295,131.122702 73.875261,133.053714 L73.875261,139.694207 C73.875261,141.830793 74.1625681,142.338841 76.837941,142.521931 L76.837941,143 L69,143 L69,142.521931 C71.0313121,142.338841 71.3438216,141.835076 71.3438216,139.725793 L71.3438216,132.495342" id="Fill-8" fill="#000000" fill-rule="nonzero"></path>
            <path d="M86.8381717,134.7139 C86.1607055,135.105374 84.4802862,135.802144 83.7146897,136.169446 C82.438155,136.767428 81.7017552,137.393785 81.7017552,138.565578 C81.7017552,140.343235 83.008027,141.228123 84.0893779,141.228123 C84.9539177,141.228123 86.0309434,140.822462 86.8381717,139.984867 L86.8381717,134.7139 Z M89.2749958,139.248686 C89.2749958,140.546591 89.7740393,141.106215 90.394194,141.106215 C90.9348694,141.106215 91.3744387,140.976424 91.7475047,140.78095 L92,141.283823 L88.913284,143 C88.5926635,143 87.9822409,142.732012 87.6075529,142.343691 C87.227458,141.945912 87.0128099,141.433581 86.8511479,140.806172 C85.5373067,141.721012 83.7590252,143 82.9718016,143 C80.5620112,143 79,141.02792 79,139.177748 C79,137.59609 79.8553485,136.64552 81.9580353,135.921951 C83.5443769,135.378092 85.90821,134.575702 86.8381717,133.907307 L86.8446599,132.95516 C86.8381717,130.492819 85.8676594,129.303685 84.0736982,129.303685 C83.4670604,129.303685 82.9377391,129.570623 82.6019796,129.914804 C82.1905256,130.333602 81.83368,131.035101 81.5984862,132.150144 C81.4903509,132.606775 81.2216354,132.863729 80.6555481,132.863729 C80.066212,132.863729 79.3114291,132.360331 79.3114291,131.626778 C79.3114291,131.127584 79.6839544,130.719821 80.2884295,130.302074 C81.2989519,129.637357 83.5800615,128.402508 85.3437449,128 C86.1769257,128 87.2074531,128.299517 87.9416902,128.867547 C89.0992764,129.737196 89.2749958,130.962587 89.2749958,132.160127 L89.2749958,139.248686 L89.2749958,139.248686 Z" id="Fill-9" fill="#000000" fill-rule="nonzero"></path>
            <path d="M94.5854297,130.702855 L92.142411,130.702855 L92,130.358917 L92.9404493,129.495585 L94.5854297,129.495585 L94.5854297,128.65908 C94.5854297,127.336985 94.7590099,126.323414 94.9465624,125.706365 C95.176032,125.043171 95.7596481,123.344408 97.5894939,121.83988 C99.0039298,120.711485 100.347966,120.135751 101.631277,120 C103.519699,120.067607 104.592886,121.025912 105.049676,121.660131 C105.309777,122.010508 105.318376,122.408102 105.200685,122.673165 C105.065261,122.919985 104.769153,123.244606 104.455312,123.459232 C104.068384,123.714637 103.711551,123.714101 103.427266,123.36587 C102.69694,122.469271 101.454472,121.384873 100.034125,121.384873 C99.1887952,121.384873 98.6626809,121.776029 98.1548384,122.429565 C97.4546066,123.252655 97.0155511,125.514275 97.0155511,128.129491 L97.0155511,129.495585 L99.3317435,129.495585 C101.971451,129.495585 103.879219,129.43066 105.660699,129.089405 L105.660699,140.761832 C105.660699,142.838338 105.965405,143.342708 108,143.520848 L108,144 L100.974574,144 L100.974574,143.520848 C102.93662,143.342708 103.231653,142.838338 103.231653,140.761832 L103.231653,132.512151 C103.231653,130.966845 103.16394,130.702855 101.53347,130.702855 L97.0155511,130.702855 L97.0155511,140.767734 C97.0155511,142.835118 97.2906996,143.339489 99.3279818,143.520848 L99.3279818,144 L92.1848656,144 L92.1848656,143.520848 C94.2936218,143.306222 94.5854297,142.831899 94.5854297,140.767734 L94.5854297,130.702855" id="Fill-10" fill="#000000" fill-rule="nonzero"></path>
            <path d="M116.964826,132.229489 C116.256345,130.298921 114.911175,128.768234 113.152493,128.768234 C111.744435,128.768234 110.804987,129.757689 110.804987,131.056645 C110.804987,132.611504 112.305432,133.490086 113.812556,134.075457 C116.41663,135.104848 118,136.356512 118,138.52249 C118,141.447769 115.17943,143 112.454029,143 C110.650824,143 109.085263,142.361557 108.544301,141.824003 C108.366207,141.21919 108.112979,139.30386 108,137.910846 L108.462489,137.844111 C109.149822,139.903419 110.927983,142.231766 113.105187,142.231766 C114.513802,142.231766 115.643032,141.479297 115.643032,139.75839 C115.643032,138.07847 114.559995,137.152596 112.672195,136.367022 C110.901825,135.616654 108.617765,134.521054 108.617765,132.28046 C108.617765,129.933721 110.718166,128.005255 113.82313,128 C115.161621,128 116.083259,128.262208 116.778384,128.535452 C117.006567,129.328382 117.362199,131.328312 117.432881,132.085511 L116.964826,132.229489" id="Fill-11" fill="#000000" fill-rule="nonzero"></path>
            <path d="M120.331073,124.238563 C120.331073,122.148935 120.155748,121.829961 118.200982,121.56121 L118.200982,121.173312 C119.705141,121.007146 121.523603,120.453617 122.74767,120 L122.74767,136.036332 C123.856279,135.762773 124.433034,135.326254 124.922126,134.834703 C125.656032,134.126762 126.696221,132.9075 127.447232,131.727777 C128.292319,130.441194 128.040023,130.218928 126.416129,130.033527 L126.416129,129.555867 L132.844352,129.253456 L132.844352,129.730582 C130.74473,130.181527 130.12254,130.544313 128.779808,131.833567 C127.858284,132.730114 127.171416,133.431644 125.763472,135.117879 C126.533191,136.309891 129.669796,140.227877 130.985267,141.505376 C132.486219,142.965071 132.910099,143.288853 134,143.421358 L134,143.898484 L129.934921,144 C128.409381,142.466573 126.178265,139.60382 124.518024,137.416951 C124.047105,136.777399 123.762202,136.55353 123.362376,136.54605 C123.144823,136.539104 122.943841,136.567421 122.74767,136.629934 L122.74767,140.652107 C122.74767,142.741735 122.998898,143.238629 125.044533,143.421358 L125.044533,143.898484 L118,143.898484 L118,143.421358 C120.045635,143.238629 120.330538,142.741735 120.330538,140.652107 L120.331073,124.238563" id="Fill-12" fill="#000000" fill-rule="nonzero"></path>
            <path d="M141.838712,134.7139 C141.160705,135.105374 139.480827,135.802144 138.71523,136.169446 C137.439236,136.767428 136.701755,137.393785 136.701755,138.565578 C136.701755,140.343235 138.008027,141.228123 139.089378,141.228123 C139.953918,141.228123 141.030943,140.822462 141.838712,139.984867 L141.838712,134.7139 Z M144.275537,139.248686 C144.275537,140.546591 144.774039,141.106215 145.394194,141.106215 C145.93487,141.106215 146.37552,140.976424 146.748045,140.78095 L147,141.283823 L143.913284,143 C143.592664,143 142.982241,142.732012 142.608093,142.343691 C142.227458,141.945912 142.013351,141.433581 141.852229,140.806172 C140.537847,141.721012 138.759025,143 137.972342,143 C135.563093,143 134,141.02792 134,139.177748 C134,137.59609 134.855889,136.64552 136.958576,135.921951 C138.544377,135.378092 140.908751,134.575702 141.838712,133.907307 L141.84466,132.95516 C141.838712,130.492819 140.867659,129.303685 139.074239,129.303685 C138.467601,129.303685 137.937739,129.570623 137.60198,129.914804 C137.191066,130.333602 136.83368,131.035101 136.600108,132.150144 C136.490892,132.606775 136.222176,132.863729 135.656629,132.863729 C135.066753,132.863729 134.31197,132.360331 134.31197,131.626778 C134.31197,131.127584 134.685036,130.719821 135.28897,130.302074 C136.298952,129.637357 138.580602,128.402508 140.344826,128 C141.177466,128 142.207994,128.299517 142.94169,128.867547 C144.099276,129.737196 144.275537,130.962587 144.275537,132.160127 L144.275537,139.248686 L144.275537,139.248686 Z" id="Fill-13" fill="#000000" fill-rule="nonzero"></path>
            <path d="M97.3281863,101.768326 C97.3270928,101.764631 97.3281863,101.75724 97.3281863,101.750377 C97.3270928,101.745626 97.3265459,101.742986 97.3265459,101.737707 L97.3265459,96.2047512 L113.50509,96.2047512 L113.50509,89.7601055 L97.3265459,89.7616892 L97.3281863,84.4879337 L119,84.485822 L118.998906,78.0015836 L90.0010935,78 L90,98.5655354 L90,106 L92.3346531,106 L92.3346531,105.998944 L93.1646305,105.997888 C95.4796003,105.874887 97.3167043,104.033032 97.3281863,101.768326" id="Fill-14" fill="#000000" fill-rule="nonzero"></path>
            <path d="M54.3104377,101.582322 L49,106.854086 L50.6083832,108.451815 L50.6083832,108.449698 L51.1816632,109.017215 C52.868439,110.518064 55.4505981,110.470418 57.075513,108.87163 C57.0797793,108.867394 57.0840455,108.863689 57.0893784,108.858924 C57.0925781,108.856277 57.0947113,108.853101 57.0989774,108.849924 L61.0500753,104.924953 L72.2074341,116 L76.8102045,111.430749 L65.6533791,100.356761 L69.4220939,96.6165501 L84.3668324,111.453513 L89,106.854086 L68.9997334,87 L54.3104377,101.582322" id="Fill-15" fill="#000000" fill-rule="nonzero"></path>
            <path d="M27.7006731,78 L20,78.0010557 L20,81.0548046 C20.1290371,83.2898216 22.0378025,85.066644 24.3812478,85.0745622 C24.3878091,85.0756178 24.39273,85.0756178 24.3992911,85.0772015 C24.4042121,85.0772015 24.4113201,85.0745622 24.4146005,85.0756178 L30.1447237,85.0756178 L30.1447237,100.69487 L36.8180207,100.69487 L36.8191142,85.0766737 L42.2802277,85.0756178 L42.2807744,106 L48.9983596,105.998944 L49,78.0021115 L27.7006731,78" id="Fill-16" fill="#000000" fill-rule="nonzero"></path>
            <path d="M21.1457466,38 L19.5485761,39.6077857 L19.5506937,39.6099188 L18.9810698,40.1837089 C17.4850128,41.8682842 17.5326579,44.452473 19.1308872,46.07519 C19.1356517,46.0794562 19.1377693,46.0847888 19.1409457,46.0885216 C19.1446513,46.0917211 19.1515334,46.0938542 19.1525922,46.097587 L23.0759036,50.048527 L12,61.2049061 L16.5681088,65.8096254 L27.6456005,54.6521799 L31.385743,58.4202108 L16.5474626,73.3680844 L21.1457466,78 L41,58 L21.1457466,38" id="Fill-17" fill="#000000" fill-rule="nonzero"></path>
            <path d="M20.0005468,38 L48.9989065,38 L49,17.4360482 L48.9989065,10.0010558 L46.6670752,10 L45.8349422,10.0010558 C43.5206063,10.1261689 41.6813846,11.9669683 41.6731835,14.2316742 C41.6731835,14.238009 41.6726369,14.2417044 41.6709966,14.2464555 C41.6709966,14.2512066 41.6731835,14.2575415 41.6726369,14.2617647 L41.6731835,19.7941931 L25.4957958,19.7963047 L25.4957958,26.2367269 L41.6731835,26.2393664 L41.6709966,31.5115383 L20,31.5131221 L20.0005468,38" id="Fill-18" fill="#000000" fill-rule="nonzero"></path>
            <path d="M83.6916247,14.4195326 L89,9.14521722 L87.3942617,7.55069366 L86.8231075,6.98424606 C85.1373756,5.48607154 82.5514491,5.5315991 80.9265125,7.13141656 C80.9217129,7.1345929 80.9190465,7.13723986 80.9153133,7.14200437 C80.9115804,7.1451807 80.907314,7.14782766 80.903581,7.15312156 L76.9518972,11.0753742 L65.7943897,0 L61.1915579,4.56916758 L72.348532,15.6456006 L68.5813668,19.3852135 L53.632696,4.54746256 L49,9.14627598 L69.0005333,29 L83.6916247,14.4195326" id="Fill-19" fill="#000000" fill-rule="nonzero"></path>
            <path d="M111.297319,38 L118.997813,38 L119,35.7470778 L118.997813,35.7481335 L118.998907,34.9478922 C118.871522,32.7134453 116.963483,30.9345449 114.616978,30.9255712 C114.610418,30.9255712 114.606044,30.9234597 114.601124,30.9234597 C114.594016,30.9255712 114.590189,30.9234597 114.584722,30.9255712 L108.855686,30.9255712 L108.853499,15.3071412 L102.182471,15.308197 L102.181378,30.9255712 L96.7191389,30.9255712 L96.7164052,10 L90,10.0015836 L90.0010934,37.999472 L111.297319,38" id="Fill-20" fill="#000000" fill-rule="nonzero"></path>
            <path d="M118.852832,77 L120.451032,75.3910621 L121.015881,74.8220408 C122.515087,73.1363091 122.468502,70.5487828 120.868714,68.925446 C120.866067,68.9222461 120.861302,68.91638 120.857067,68.9131802 C120.85442,68.9105138 120.850185,68.9073141 120.84648,68.9025144 L116.923769,64.9508307 L128,53.7938564 L123.430387,49.189958 L112.353626,60.3469323 L108.614611,56.5808336 L123.452091,41.632696 L118.851773,37 L99,57.0005333 L118.852832,77" id="Fill-21" fill="#000000" fill-rule="nonzero"></path>
            <path d="M89.5058319,65.5090278 L77.4825046,65.5090278 L77.4825046,77.5161485 L68.9817372,69.0149094 L60.4911756,77.5043316 L60.4911756,65.4821709 L48.4844996,65.4821709 L56.985267,56.9809317 L48.4947053,48.4909724 L60.5174954,48.4909724 L60.5174954,36.4838515 L69.0182628,44.9856277 L77.5088244,36.4951313 L77.5088244,48.5151434 L89.5171117,48.5151434 L81.014733,57.0179941 L89.5058319,65.5090278 Z M104,42.5169543 L83.5081338,42.5169543 L83.5081338,22.0118169 L69.0182628,36.5005027 L54.5187231,22 L54.5187231,42.4917089 L34.0107427,42.4917089 L48.5006138,56.9809317 L34,71.4814342 L54.4913291,71.4814342 L54.4913291,91.9892573 L68.9817372,77.4989602 L83.4823512,92 L83.4823512,71.5082911 L103.990332,71.5082911 L89.4993862,57.0179941 L104,42.5169543 L104,42.5169543 Z" id="Fill-22" fill="#000000" fill-rule="nonzero"></path>
        </g>
    </g>
</svg>