<?xml version="1.0" encoding="UTF-8"?>
<svg width="400px" height="300px" viewBox="0 0 400 300" version="1.1" xmlns="http://www.w3.org/2000/svg" xmlns:xlink="http://www.w3.org/1999/xlink">
    <!-- Generator: Sketch 57.1 (83088) - https://sketch.com -->
    <title>Artboard Copy 5</title>
    <desc>Created with Sketch.</desc>
    <g id="Artboard-Copy-5" stroke="none" stroke-width="1" fill="none" fill-rule="evenodd">
        <g id="oatly" transform="translate(62.000000, 102.000000)" fill="#000000" fill-rule="nonzero">
            <path d="M3.86490082,2.58400983 C5.9529561,0.317754304 10.7670836,0.138839394 12.9131404,0.496669214 C15.7552156,0.973775642 16.6832402,2.70328644 16.5672371,3.41894608 C16.5092356,4.19424403 15.2332018,5.86411652 12.6231327,5.68520161 C12.4491281,7.1761592 12.0431173,11.4104787 11.7531097,12.4243299 C11.463102,13.4381811 10.4190743,14.8695003 9.02703749,13.6767343 C7.63500063,12.4839682 7.34499295,10.9333723 7.34499295,9.32313812 C7.34499295,7.71290393 7.51899756,6.16230804 7.63500063,5.4466484 C5.31493921,6.22194634 3.92290235,5.92375483 3.342887,5.14845688 C2.82087318,4.37315894 2.82087318,3.59786099 3.86490082,2.58400983 Z M22.5993968,9.02494661 C22.5993968,9.85988285 22.8894045,11.3508404 23.0634091,12.5436065 C23.2374137,13.7363726 23.9914337,14.8695003 25.325469,14.4520322 C26.6595043,14.0942024 27.1815181,12.4243299 27.5875289,9.32313812 C27.9935396,6.22194634 26.8915105,2.34545662 26.4854997,1.03341395 C26.079489,-0.278628731 25.0934629,0.0792010901 24.6294506,0.735222428 C24.2234398,1.39124377 23.8174291,2.64364814 23.4694199,4.37315894 C23.1214106,4.61171215 22.5993968,4.79062706 21.8453769,4.49243554 C21.9613799,3.06111626 21.5553692,1.33160546 21.0913569,0.496669214 C20.5693431,-0.338267034 18.6552924,-0.0400755168 18.2492817,0.794860731 C17.7852694,1.57015868 17.5532632,3.47858439 17.1472525,6.28158465 C16.7412417,9.08458491 17.3792586,11.649032 18.1912801,13.4381811 C19.0033016,15.2273302 20.6273446,14.213479 21.0333554,13.4381811 C21.4393661,12.6628831 21.4973676,11.2315638 21.4973676,9.08458491 C21.7293738,8.8460317 22.1353845,8.8460317 22.5993968,9.02494661 Z M29.0375673,6.75869108 C28.8635627,8.54784018 28.7475596,11.2912021 29.2695734,12.4243299 C29.7915872,13.5574577 30.7196118,14.2731173 32.5756609,14.7502237 C34.4317101,15.2273302 37.0997807,15.0484153 38.317813,13.9749258 C39.5358452,12.9014363 38.9558299,11.3508404 38.1438084,11.0526489 C37.3317869,10.7544574 35.7077439,10.3966276 33.3876824,10.3369893 C33.3296809,10.0984361 33.2136778,9.56169134 33.2136778,9.26349982 C36.1137546,9.56169134 37.0417792,8.48820187 37.0417792,7.47435072 C37.0417792,6.46049956 35.8237469,5.56592501 33.8516947,5.4466484 C33.7936932,5.14845688 33.6776901,4.55207385 33.6776901,4.13460572 C34.6057147,4.19424403 36.8677746,4.49243554 38.2018099,3.83641421 C39.5358452,3.24003117 39.2458375,1.9279885 38.1438084,1.21232886 C37.0417792,0.496669214 34.9537239,0.437030911 33.2716794,0.437030911 C31.5896348,0.437030911 30.8356149,0.914137338 30.2555995,2.0472651 C29.443578,3.35930778 29.2115719,4.96954197 29.0375673,6.75869108 Z M44.1759681,5.98339313 C43.5379512,8.36892527 44.2919711,10.4562659 45.3359988,11.649032 C46.3800264,12.841798 49.6281124,14.4520322 52.1221785,13.1399895 C54.6162445,11.7683086 55.5442691,8.8460317 54.8482506,5.92375483 C54.2102337,3.06111626 52.18018,2.0472651 50.1501262,1.45088207 C49.3961063,0.675584125 48.1200725,1.03341395 46.6120326,1.9279885 C45.6260065,2.52437153 44.813985,3.59786099 44.1759681,5.98339313 Z M56.1242844,12.245415 C56.4142921,13.7960109 57.052309,15.1080536 58.5023474,14.8695003 C59.9523858,14.6309471 60.0683888,12.5436065 59.9523858,10.7544574 C60.5324011,11.7086703 61.924438,13.3189045 63.0844687,13.9152875 C64.2444994,14.5116705 65.6365363,14.213479 65.7525393,12.7225214 C65.8685424,11.2315638 65.0565209,9.85988285 63.7224856,8.13037205 C64.8825163,7.71290393 65.6365363,6.75869108 65.8105409,5.08881858 C65.9845455,3.47858439 64.8245148,1.9876268 63.3744764,0.973775642 C61.924438,-0.0997138202 59.1403643,0.317754304 58.0383351,0.556307518 C56.9363059,0.794860731 56.1242844,1.27196716 56.0082813,3.53822269 C55.9502798,6.57977616 55.8342767,10.7544574 56.1242844,12.245415 Z M67.4345839,11.7683086 C67.5505869,13.1399895 68.3046069,14.3923939 69.4066361,14.3327556 C70.5086652,14.2731173 71.2046837,13.1399895 71.3786883,11.5297554 C71.5526929,10.0387978 71.5526929,5.20809519 71.6106944,3.47858439 C71.6106944,1.80871189 71.0886806,0.854499035 69.7546453,0.735222428 C68.42061,0.615945821 67.7245915,1.62979698 67.6085885,2.94183966 C67.3185808,5.68520161 67.2605793,9.44241473 67.4345839,11.7683086 Z M73.1187343,7.47435072 C73.0027313,9.68096794 73.5827466,11.1719255 74.916782,12.4839682 C76.1928157,13.7960109 78.7448833,14.3923939 80.3689263,13.5574577 C81.9929693,12.7225214 82.5729847,10.9333723 82.5149831,9.14422321 C82.5149831,7.35507411 81.6449601,6.87796768 79.7889109,6.75869108 C78.4548756,6.63941447 77.8168587,7.05688259 77.7008557,7.77254223 C77.5848526,8.48820187 78.0488649,8.9653083 78.3968741,8.9653083 C78.7448833,8.9653083 78.6868818,9.32313812 78.1648679,9.44241473 C77.6428541,9.56169134 76.4248219,9.20386152 76.540825,7.35507411 C76.656828,5.5062867 78.4548756,5.4466484 79.4989033,5.4466484 C80.5429309,5.4466484 81.2969509,4.90990367 81.4129539,3.83641421 C81.5869585,2.76292474 80.6009324,1.68943528 79.0928925,1.33160546 C77.0048372,0.854499035 75.2067896,1.74907359 74.2787651,3.12075457 C73.8147528,4.01532912 73.292739,5.26773349 73.1187343,7.47435072 Z M83.7330154,10.873734 C83.7910169,12.0665001 84.3130307,13.1399895 85.3570584,13.3785428 C86.401086,13.6767343 86.7490952,13.1996278 87.0391029,12.0665001 C87.3291106,10.9930106 87.3871121,4.37315894 87.3291106,2.82256305 C87.271109,1.27196716 86.401086,0.675584125 85.4730614,0.735222428 C84.4870353,0.794860731 84.1970277,1.80871189 84.1390261,2.58400983 C83.90702,5.32737179 83.7330154,9.68096794 83.7330154,10.873734 Z M89.3591643,11.7086703 C89.5331689,12.841798 90.5771966,13.9152875 91.1572119,13.9152875 C91.7372273,13.9152875 92.3172426,13.5574577 92.6072503,12.6628831 C92.897258,11.7683086 92.8392565,9.68096794 92.7812549,9.38277643 C92.7812549,9.08458491 92.8392565,8.90567 92.9552595,9.14422321 C93.9992872,11.4104787 95.1013163,12.245415 96.3193486,13.1996278 C97.5373808,14.1538407 98.63941,13.6767343 98.8714162,13.0207129 C99.1034223,12.3646916 99.4514315,11.5893937 99.5094331,9.20386152 C99.5674346,6.87796768 99.1614238,4.07496742 98.3494023,2.16654171 C97.5373808,0.258116 96.5513547,1.45088207 96.2033455,2.16654171 C95.8553363,2.94183966 95.8553363,5.02918028 95.7973348,5.3870101 C95.7973348,5.74483992 95.5653286,5.74483992 95.4493256,5.3870101 C94.8693102,3.83641421 93.2452672,2.0472651 91.2152135,1.15269055 C90.2871889,0.735222428 89.3011628,1.51052037 89.2431613,2.40509492 C89.1271582,6.04303143 89.1851597,10.5755425 89.3591643,11.7086703 Z M107.107634,9.80024455 C107.107634,10.4562659 107.281639,11.649032 107.571647,12.5436065 C107.861654,13.3785428 108.789679,13.9749258 109.369694,14.0345641 C110.007711,14.0942024 110.993737,13.6767343 111.283745,12.6032448 C111.573752,11.5297554 111.457749,8.54784018 110.877734,6.04303143 C110.297719,3.47858439 108.673676,2.34545662 107.397642,1.74907359 C106.121608,1.21232886 103.685544,1.27196716 102.757519,2.16654171 C101.829494,3.12075457 100.959471,5.4466484 100.843468,8.24964866 C100.727465,11.0526489 101.365482,12.1261384 102.061501,12.9610746 C102.757519,13.7960109 103.859548,13.6767343 104.323561,13.1399895 C104.787573,12.6628831 104.903576,12.1857767 105.07758,10.1580744 C105.657596,9.91952116 106.58562,9.80024455 107.107634,9.80024455 Z M112.675782,10.3966276 C112.907788,12.1857767 113.429802,12.7225214 114.937842,13.0803512 C116.445881,13.4381811 119.287957,12.841798 120.912,12.1857767 C122.478041,11.470117 122.188033,9.56169134 121.086004,8.90567 C119.983975,8.24964866 118.185928,8.07073375 117.431908,8.07073375 C116.677888,8.13037205 116.735889,7.65326563 116.793891,7.1761592 C116.909894,6.69905277 117.1419,5.26773349 117.083898,3.95569081 C117.025897,2.70328644 116.619886,2.16654171 115.169848,1.68943528 C113.719809,1.21232886 113.023791,1.9279885 112.907788,2.94183966 C112.559779,5.68520161 112.443776,8.60747848 112.675782,10.3966276 Z M48.4100802,7.71290393 C48.6420863,8.19001036 49.1641001,8.66711679 49.802117,8.48820187 C50.3821324,8.30928696 50.7301416,7.83218054 50.4401339,6.93760599 C50.1501262,6.04303143 49.686114,5.86411652 48.932094,6.10266974 C48.2940771,6.34122295 48.178074,7.2357975 48.4100802,7.71290393 Z M59.6623781,5.5062867 C59.7783812,5.80447822 60.300395,5.86411652 60.8804103,5.56592501 C61.4604257,5.20809519 61.5764288,4.43279724 60.5324011,4.13460572 C59.7783812,3.95569081 59.6043765,4.25388233 59.546375,4.61171215 C59.546375,4.90990367 59.546375,5.20809519 59.6623781,5.5062867 Z M105.193584,6.87796768 C105.541593,7.29543581 106.237611,7.1165209 106.58562,6.69905277 C106.817627,6.46049956 106.875628,5.80447822 106.58562,5.32737179 C106.295613,4.85026537 105.483591,4.79062706 105.135582,5.32737179 C104.67157,6.04303143 104.845574,6.46049956 105.193584,6.87796768 Z" id="Shape"></path>
            <path d="M56.6841246,71.3247201 C56.6841246,71.3247201 57.6731317,69.0404823 58.8366695,65.994832 C58.9530233,64.1205857 59.3020846,58.6149871 58.6621388,53.57795 C58.0221931,48.5994832 56.8004784,43.9138674 56.8004784,43.9138674 L56.9168322,43.7381568 C56.9168322,43.7381568 54.0079878,37.002584 52.6699194,34.3669251 C51.273674,32.8440999 46.2122848,29.7398794 46.2122848,29.7398794 L39.7546502,27.0456503 C39.7546502,27.0456503 38.9401738,26.4599483 33.8206076,25.5813953 C28.7010415,24.6442722 25.2104282,25.2885444 21.3125767,25.7571059 C17.472902,26.2256675 13.6332274,28.3341947 9.3281377,30.6770026 C8.28095372,32.0241171 6.59382396,34.6597761 5.72117064,36.0068906 C4.84851732,37.4125754 4.26674844,38.2325581 2.52144179,43.0353144 C0.834312036,47.8380706 -0.154695062,55.042205 0.0198356019,57.2678725 C0.601604483,64.3548665 1.35790403,66.1119724 2.69597246,69.9190353 C4.03404088,73.7260982 6.24476263,76.3031869 7.23376973,77.3574505 C8.22277683,78.411714 12.2369821,82.3359173 15.8439492,84.4444444 C18.2873785,85.8501292 22.9997064,87.4900947 24.3377748,87.7829457 C25.6758433,88.0757967 33.0061312,88.5443583 33.0061312,88.5443583 L33.3551925,88.3686477 C33.3551925,88.3686477 37.253044,87.6072351 39.4637658,86.7872524 C40.8600111,86.0258398 43.9433861,84.2101637 46.5031692,82.5701981 C49.0047754,80.9302326 52.7280962,77.4745909 52.7280962,77.4745909 L52.9608038,77.5331611 L56.6841246,71.3247201 Z M92.404734,69.8604651 C91.8229651,69.8604651 90.4267198,69.7433247 90.4267198,69.7433247 L91.881142,70.7390181 L92.9865028,73.1989664 C92.9865028,73.1989664 91.5320806,73.0232558 91.0666655,72.9646856 C90.6012504,72.9646856 89.5540664,72.7304048 89.1468282,72.496124 C88.73959,72.2618432 87.2269909,71.5590009 86.5870451,70.6804479 C85.8307456,69.1576227 85.1326229,67.751938 85.0744461,66.9319552 C85.0744461,66.1705426 85.1326229,65.7605512 85.1326229,64.9405685 C86.2379838,64.8234281 87.6342291,64.8819983 88.6232362,65.2334195 C89.6704202,65.5848407 92.6956184,66.8148148 93.3355642,67.6933678 C93.917333,68.5133506 94.3245713,69.0404823 94.7899864,69.2161929 C94.7899864,69.2161929 94.7318095,69.6847545 94.7318095,69.6847545 C94.7318095,69.6847545 92.9865028,69.8604651 92.404734,69.8604651 Z M107.298017,66.6391042 L100.200437,47.6037898 C100.200437,47.6037898 93.1028566,28.3341947 92.0556726,25.2299742 C91.1830193,25.1128338 88.5650593,24.585702 87.2269909,24.4099914 C86.5870451,25.2885444 80.420295,36.8854436 80.420295,36.8854436 L68.0867947,57.9707149 C68.0867947,57.9707149 58.6621388,73.4918174 55.5787638,78.5874246 C52.4953887,83.6830319 49.0629523,89.4814815 49.0629523,89.4814815 L49.1793061,91.6485788 C49.1793061,91.6485788 63.3744668,91.4728682 70.6465778,91.414298 C77.8605119,91.3557278 84.2599696,91.121447 84.2599696,91.121447 L84.2017927,77.2988803 C84.2017927,77.2988803 84.7835616,77.2403101 84.7253847,77.1817399 C84.8999154,77.7088717 85.7143918,79.5245478 86.7615758,80.8716624 C86.7615758,81.9844961 86.8779296,91.1800172 86.8779296,91.1800172 L106.890779,90.8871662 L116.315435,90.8871662 L114.104713,84.5615848 L107.298017,66.6391042 Z M83.5036701,58.9078381 C83.561847,57.2093023 83.6782007,55.8036176 83.6782007,54.8079242 C84.4926772,54.9250646 85.1326229,54.9836348 85.1326229,54.9836348 C85.1326229,54.9836348 87.4015216,55.8621878 88.6232362,57.0921619 C89.9031278,58.3221361 90.7757811,60.1378122 91.1248424,61.0163652 C90.1940122,61.3092162 88.9141207,61.0749354 88.4487056,60.8992248 C88.6232362,61.8949182 88.7977669,63.8863049 88.8559438,64.2377261 C87.7505829,63.7105943 85.9470994,62.42205 85.9470994,62.42205 C85.9470994,62.42205 83.7945545,60.4306632 83.5036701,58.9078381 Z M84.0272621,65.4677003 C83.9690852,65.8191214 83.7363776,66.3462532 83.3291394,66.9905254 C82.9219012,67.6347976 81.9328941,68.630491 81.2347714,69.0404823 C80.5366488,69.5090439 79.1985804,70.1533161 79.1985804,70.1533161 C79.1985804,70.1533161 77.278743,70.5633075 77.278743,70.3875969 C77.278743,70.2118863 77.3369199,67.9862188 78.6168115,66.6976744 C77.3369199,66.9905254 76.1152053,66.6976744 75.3007288,66.4633936 C76.3479128,64.7648579 77.3950968,63.7691645 78.325927,63.1834625 C79.2567572,62.6563307 80.3039412,62.3634798 80.3039412,62.3634798 C80.3039412,62.3634798 83.3291394,62.2463394 84.3763234,62.3634798 C84.2017927,64.0620155 84.085439,65.1162791 84.0272621,65.4677003 Z M84.2017927,75.1317829 C83.6782007,76.3617571 82.9800781,77.3574505 82.9800781,77.3574505 L79.7221723,79.2316968 L79.1404035,79.3488372 C79.1404035,79.3488372 78.9076959,77.0060293 79.0240497,76.1860465 C77.8605119,76.8888889 75.9406746,77.5917313 75.0098444,77.7674419 C74.8353137,76.1860465 75.7079671,74.546081 75.9988515,73.960379 C76.3479128,73.374677 77.278743,71.8518519 79.0822266,71.2661499 C80.8857101,70.6804479 84.3763234,70.2704565 84.3763234,70.2704565 L85.1326229,71.0318691 C85.2489767,71.0904393 84.7835616,73.9018088 84.2017927,75.1317829 Z M91.4739037,78.5288544 C92.5792646,79.7588286 93.1028566,81.5745047 93.2192104,82.3944875 C91.5902575,82.2187769 89.0886513,81.047373 88.3323518,80.5788114 C87.5760522,80.1102498 86.9361065,79.3488372 86.4706914,78.2945736 C86.0052763,77.2988803 85.7143918,75.0732127 85.7143918,75.0732127 L86.0634531,72.6132644 C86.0634531,72.6132644 88.215998,73.0232558 89.3795358,73.4918174 C90.5430735,73.960379 91.881142,74.6046512 91.881142,74.6046512 C91.881142,74.6046512 94.6736326,76.9474591 95.6044628,78.7631352 C94.0336868,78.9388458 91.9974957,78.7631352 91.4739037,78.5288544 Z M140.749728,54.456503 C140.749728,54.163652 140.749728,53.9293712 140.749728,53.7536606 C140.807905,51.2351421 140.400667,49.3608958 140.400667,49.3608958 L156.457488,48.5994832 L156.22478,37.9397071 C156.22478,37.9397071 157.562849,39.7553833 157.446495,39.6382429 C157.446495,39.5796727 157.446495,39.5211025 157.446495,39.4039621 C157.446495,39.4039621 157.446495,39.4039621 157.388318,39.3453919 C157.388318,39.3453919 157.388318,39.3453919 157.446495,39.3453919 C157.388318,37.002584 157.15561,27.9827735 157.15561,26.1085271 C155.061242,26.2842377 141.156966,26.6356589 132.721317,26.6356589 C124.285669,26.6356589 103.051104,27.6313523 103.051104,27.6313523 L103.51652,47.1937984 L123.354838,47.6037898 C123.529369,49.419466 123.762077,53.8122308 123.7039,58.0878553 C123.645723,62.3634798 123.7039,69.4504737 123.238485,76.0689061 C122.77307,82.6873385 123.063954,91.3557278 123.063954,91.3557278 C123.063954,91.3557278 139.062598,91.414298 140.34249,91.414298 C140.109782,89.3643411 140.924259,87.6658053 140.51702,82.9801895 C140.226136,79.9345392 140.51702,71.9689922 140.51702,71.9689922 L140.633374,63.8863049 L140.633374,63.2420327 C140.633374,63.2420327 140.749728,56.5064599 140.807905,54.6907838 L140.749728,54.456503 Z M198.868439,75.8931955 C195.66871,75.9517657 186.767647,75.8346253 185.429578,75.8346253 C184.324217,75.8346253 182.40438,75.7174849 182.40438,75.7174849 L182.346203,75.7174849 C182.346203,75.7174849 181.880788,75.6589147 181.64808,75.6003445 C181.008135,71.7932817 181.182665,66.6391042 181.357196,59.9035314 C181.531727,53.1679587 181.64808,49.3608958 181.997142,44.9095607 C182.346203,40.4582257 182.520734,37.1782946 182.40438,34.3083549 C182.288026,31.4384152 181.357196,26.1085271 181.357196,26.1085271 L162.217,25.8742463 C160.820754,30.6770026 161.402523,39.9896641 161.28617,43.3281654 C161.169816,46.6666667 160.471693,57.7364341 160.471693,57.7364341 L160.704401,58.7906977 L160.355339,59.8449612 C160.355339,59.8449612 160.064455,65.4677003 159.657217,73.7260982 C160.646224,71.6175711 161.693408,66.3462532 161.693408,66.3462532 L161.344346,89.7743325 C161.344346,89.7743325 200.264685,89.8329027 205.267897,89.5986219 C205.616958,86.7872524 204.744305,75.6003445 204.744305,75.6003445 C204.744305,75.6003445 202.009991,75.8346253 198.868439,75.8931955 Z M230.283959,30.7355728 C229.178598,32.6683893 223.942678,44.6167097 222.255548,48.540913 C222.197371,48.4823428 222.139194,48.3066322 222.139194,48.3066322 L222.139194,48.3066322 L222.022841,48.0723514 L222.022841,48.0723514 L218.764935,41.6881998 L218.648581,41.5124892 C218.648581,41.5124892 217.54322,39.2868217 216.903275,38.1154177 C216.903275,38.1154177 216.845098,37.9982773 216.845098,37.9982773 L216.728744,37.7054264 L213.412661,31.086994 L213.412661,31.086994 L213.354484,30.9698536 L212.714539,29.6813092 C212.714539,29.6813092 210.503817,25.171404 209.980225,24 C207.769503,24 196.599541,24.4685616 196.599541,24.4685616 L196.42501,27.5727821 C197.704901,30.7355728 201.719107,39.4039621 203.871652,44.6167097 C206.024196,49.7708872 209.922048,58.7321275 212.016416,64.0034453 C212.889069,71.7347115 213.645369,92 213.645369,92 L232.087442,91.9414298 L231.505673,63.5934539 L232.378327,61.8949182 L232.494681,61.6606374 L235.86894,55.1593454 L235.985294,54.9250646 C235.985294,54.9250646 236.79977,53.3436693 236.79977,53.4022394 C240.639445,45.9638243 245.58448,36.2411714 248.144263,30.8527132 C245.002712,30.7355728 236.043471,30.9698536 230.283959,30.7355728 Z M276.301877,48.6580534 L276.127347,46.9595177 L276.06917,46.5495263 L275.603755,40.5167959 C275.603755,40.5167959 275.021986,31.4969854 274.789278,26.5185185 C272.287672,26.2842377 256.114497,25.6985357 256.114497,25.6985357 L255.474551,45.7881137 L254.718252,68.7476314 L275.603755,69.8018949 L277,55.8036176 L276.534585,50.8251507 L276.301877,48.6580534 Z M267.982582,72.3789836 C267.517167,72.2618432 262.97937,70.7390181 262.97937,70.7390181 L258.557926,72.2618432 L253.845599,76.0103359 L252.798415,80.2859604 C252.798415,80.2859604 252.972945,82.0430663 252.914768,84.5030146 C253.729245,85.3229974 255.765436,87.8415159 256.870797,88.8372093 C257.976158,89.8329027 260.419587,90.7700258 260.419587,90.7700258 C260.419587,90.7700258 262.97937,90.4771748 265.422799,89.8329027 C267.866229,89.2472007 270.775073,87.7243755 270.775073,87.7243755 L271.880434,83.0387597 L271.938611,77.7088717 C271.938611,77.7088717 270.891427,75.5417743 270.484189,74.546081 C269.960597,73.667528 269.262474,73.0232558 267.982582,72.3789836 Z" id="Shape"></path>
        </g>
    </g>
</svg>